<?xml version="1.0" encoding="utf-8"?>
<!-- Generator: Adobe Illustrator 26.0.2, SVG Export Plug-In . SVG Version: 6.00 Build 0)  -->
<svg version="1.1" id="Layer_1" xmlns="http://www.w3.org/2000/svg" xmlns:xlink="http://www.w3.org/1999/xlink" x="0px" y="0px"
	 viewBox="0 0 612 792" style="enable-background:new 0 0 612 792;" xml:space="preserve">
<style type="text/css">
	.st0{stroke:#000000;stroke-miterlimit:10;}
	.st1{font-family:'MyriadPro-Regular';}
	.st2{font-size:12px;}
	.st3{fill:#FFFFFF;}
</style>
<rect class="st0" width="612" height="792"/>
<text transform="matrix(1 0 0 1 212.0908 178)" class="st1 st2">Play</text>
<g>
	<g>
		<path class="st3" d="M274.78,262.1c0,1.73-0.73,3.22-2.2,4.47c-1.47,1.26-3.39,2.11-5.77,2.56c-1.11,0.21-2.23,0.35-3.37,0.43
			c-1.14,0.08-2.44,0.12-3.9,0.12l0.05,6.97h-2.97c0.04-5.42,0.07-9.46,0.07-12.1c0-1.27-0.01-2.61-0.03-4.03
			c-0.02-1.41-0.03-3.44-0.03-6.1c1.56,0,2.66,0,3.3,0c1.74,0,3.41,0.08,5.01,0.23c1.6,0.16,3.01,0.44,4.23,0.85
			c1.77,0.59,3.15,1.42,4.14,2.51C274.28,259.1,274.78,260.46,274.78,262.1z M271.61,262.07c0-1.13-0.38-2.1-1.15-2.91
			c-0.76-0.81-1.91-1.42-3.44-1.84c-0.89-0.24-1.95-0.41-3.19-0.51c-1.24-0.09-2.37-0.14-3.39-0.14c-0.18,0-0.34,0-0.5,0
			c-0.16,0-0.28,0-0.37,0c-0.02,3.3-0.03,5.35-0.03,6.16c0,1.11-0.01,2.65-0.02,4.62c0.49,0,0.82,0,1,0
			c1.27-0.01,2.48-0.08,3.64-0.21c1.15-0.13,2.1-0.29,2.86-0.49c1.32-0.34,2.41-0.91,3.28-1.71
			C271.17,264.24,271.61,263.25,271.61,262.07z"/>
		<path class="st3" d="M298.95,276.63c-4.23-0.02-7.22-0.03-8.98-0.03c-1.46,0-3.04,0.01-4.73,0.02c-1.69,0.01-2.97,0.02-3.83,0.02
			c0-1.83,0.01-3.65,0.03-5.47c0.02-1.82,0.03-3.7,0.03-5.65c0-2.83-0.02-6.52-0.07-11.07h2.97c0,1.87-0.01,3.74-0.02,5.59
			s-0.02,3.2-0.02,4.02c0,4.28,0.02,7.7,0.05,10.24c0.8,0,1.65,0,2.56,0.01c0.91,0.01,1.59,0.01,2.02,0.01
			c2.08,0,5.41-0.02,9.99-0.07V276.63z"/>
		<path class="st3" d="M328.35,275.62l-2.59,1.47c-0.12-0.21-0.71-1.18-1.75-2.91c-1.04-1.73-2.15-3.52-3.31-5.37h-14.26
			c-1.45,2.36-2.54,4.12-3.29,5.28s-1.36,2.16-1.82,3l-2.1-1.22c0.38-0.6,2.04-3.23,4.99-7.89c2.95-4.66,5.84-9.28,8.66-13.87h2.08
			c2.69,4.37,5.57,9,8.65,13.89C326.68,272.9,328.27,275.44,328.35,275.62z M319.32,266.53c-0.76-1.31-1.68-2.83-2.75-4.57
			c-1.07-1.74-2.04-3.31-2.92-4.71h-0.07c-0.69,1.15-1.66,2.72-2.91,4.71c-1.25,1.99-2.19,3.51-2.82,4.57l-0.01,0.02h11.49
			L319.32,266.53z"/>
		<path class="st3" d="M353.01,255.76c-6.12,5.69-9.74,9.07-10.86,10.16c-0.04,2.69-0.02,6.27,0.07,10.74h-3.05
			c0.07-4.18,0.1-7.66,0.1-10.44c-1.43-1.33-5.08-4.81-10.96-10.44l2.13-1.73c5.19,5.02,8.64,8.32,10.33,9.88h0.02
			c1.59-1.51,5.03-4.79,10.32-9.84L353.01,255.76z"/>
		<path class="st3" d="M274.9,317.43c-5.2-0.02-8.36-0.03-9.48-0.03c-1.6,0-3.26,0.01-4.96,0.02c-1.7,0.01-2.99,0.02-3.85,0.02
			c0.06-3.4,0.08-7.02,0.08-10.87c0-1.39-0.01-3.09-0.03-5.1c-0.02-2-0.03-4.06-0.03-6.18c1.03,0,2.23,0.01,3.6,0.02
			c1.37,0.01,3.02,0.02,4.95,0.02c1.49,0,4.65-0.01,9.46-0.03v2.39c-5.14-0.03-8.24-0.05-9.29-0.05c-1.38,0-2.56,0-3.52,0.01
			c-0.97,0.01-1.71,0.01-2.23,0.01c0,0.85-0.01,1.91-0.02,3.16c-0.01,1.26-0.02,2.58-0.02,3.96c1,0,2.21,0.01,3.65,0.02
			c1.44,0.01,2.43,0.02,2.97,0.02c1.37,0,4.19-0.01,8.46-0.03v2.39c-4.29-0.02-7-0.03-8.14-0.03c-0.4,0-1.32,0.01-2.78,0.02
			c-1.45,0.01-2.84,0.02-4.15,0.02c0.01,4.89,0.02,7.52,0.02,7.89c0.73,0,1.75,0.01,3.06,0.02c1.31,0.01,2.68,0.02,4.1,0.02
			c1.42-0.01,4.13-0.02,8.16-0.03V317.43z"/>
		<path class="st3" d="M301.82,317.86c-4.12-3.86-7.66-7.18-10.6-9.94h-0.03c-2.5,2.31-6.05,5.62-10.67,9.91l-1.75-1.73
			c3.72-3.42,7.26-6.72,10.62-9.89v-0.02c-1.44-1.34-4.77-4.48-10.01-9.41l2.1-1.89c4.21,3.98,7.57,7.14,10.07,9.46h0.02
			c1.99-1.87,5.31-5.02,9.95-9.46l1.85,1.49c-5.39,5.16-8.75,8.36-10.07,9.61v0.02c2.36,2.24,5.84,5.56,10.44,9.96L301.82,317.86z"
			/>
		<path class="st3" d="M308.88,317.46c0.06-4.07,0.08-7.7,0.08-10.89c0-1.26-0.01-2.92-0.02-4.96c-0.01-2.05-0.03-4.17-0.07-6.38
			h2.74c-0.02,1.58-0.04,3.42-0.06,5.52c-0.02,2.1-0.02,3.81-0.02,5.14c0,3.36,0.03,7.22,0.08,11.57H308.88z"/>
		<path class="st3" d="M340.61,297.64c-3.64,0.02-7.3,0.03-10.99,0.03c0,2.69-0.01,4.5-0.02,5.42c-0.01,0.92-0.02,2.34-0.02,4.24
			c0,1.99,0.02,5.37,0.07,10.13h-2.89c0.07-4.76,0.11-8.12,0.13-10.09c-0.01-1.89-0.02-3.34-0.03-4.34c-0.01-1-0.01-2.79-0.01-5.35
			c-4.54-0.02-8.2-0.03-10.99-0.03v-2.36c1.17,0,2.86,0.01,5.05,0.02c2.19,0.01,4.56,0.02,7.12,0.02c2.34,0,6.53-0.01,12.57-0.03
			V297.64z"/>
	</g>
</g>
<g>
	<g>
		<path class="st3" d="M117.81,448.99c-4.53-3.83-8.1-6.8-10.7-8.91l0.06-0.17c0.64-0.11,1.3-0.3,1.96-0.57
			c0.67-0.27,1.29-0.6,1.86-0.98c0.57-0.38,1-0.81,1.3-1.3c0.3-0.49,0.43-1.08,0.4-1.78c-0.03-0.65-0.29-1.24-0.79-1.76
			c-0.5-0.52-1.27-0.93-2.32-1.21c-0.69-0.19-1.47-0.31-2.35-0.36c-0.88-0.05-1.75-0.08-2.61-0.08c-0.31,0-0.85,0.01-1.61,0.03
			c-0.04,2.24-0.05,3.89-0.05,4.96c0,1.07,0.01,1.92,0.01,2.55c0,1.22,0.01,4.38,0.04,9.49h-2.53c0.03-4.45,0.05-7.59,0.06-9.43
			c0-1.86,0-3.65,0-5.38s0-3.11,0-4.15c2.73-0.04,4.3-0.06,4.73-0.06c1.11,0,2.19,0.05,3.24,0.16c1.05,0.1,2.02,0.3,2.9,0.58
			c1.26,0.41,2.23,0.99,2.92,1.76c0.69,0.77,1.04,1.7,1.04,2.8c0,1.08-0.33,2.06-1,2.96c-0.67,0.9-1.71,1.65-3.14,2.25v0.03
			c1.11,0.96,3.86,3.23,8.24,6.81L117.81,448.99z"/>
		<path class="st3" d="M145.12,447.99l-2.21,1.25c-0.11-0.18-0.6-1.01-1.49-2.49c-0.89-1.48-1.83-3-2.82-4.58h-12.16
			c-1.23,2.01-2.17,3.51-2.81,4.5c-0.64,0.99-1.16,1.85-1.55,2.56l-1.79-1.04c0.32-0.51,1.74-2.75,4.25-6.73
			c2.52-3.98,4.98-7.92,7.38-11.83h1.77c2.29,3.73,4.75,7.68,7.38,11.85C143.69,445.67,145.04,447.83,145.12,447.99z M137.41,440.24
			c-0.65-1.11-1.44-2.41-2.35-3.9c-0.91-1.49-1.74-2.83-2.49-4.01h-0.06c-0.59,0.98-1.42,2.32-2.48,4.01c-1.06,1.69-1.87,3-2.41,3.9
			l-0.01,0.01h9.8L137.41,440.24z"/>
		<path class="st3" d="M169.84,429.92c-0.03,1.6-0.04,3.3-0.05,5.11c0,1.81-0.01,3.1-0.01,3.87c0,3.4,0.02,6.5,0.06,9.32l-2.02,0.67
			c-3.01-2.84-6.54-6.12-10.59-9.84c-4.05-3.72-6.27-5.77-6.67-6.14h-0.01c0,3.13,0.06,8.46,0.17,15.99h-2.44
			c0.04-3.81,0.06-6.69,0.06-8.64c0-1.29-0.01-2.74-0.03-4.35c-0.02-1.6-0.03-3.34-0.03-5.2l2.35-0.81
			c0.55,0.56,2.85,2.71,6.92,6.46c4.06,3.75,7.4,6.8,10.02,9.16h0.03c0-0.92-0.02-3.26-0.06-7.01c-0.04-3.75-0.06-6.61-0.06-8.58
			H169.84z"/>
		<path class="st3" d="M176.82,448.91c0.04-3.78,0.06-7.36,0.06-10.76c0-0.99-0.01-2.29-0.03-3.89c-0.02-1.6-0.03-3.05-0.03-4.34
			h2.53c-0.03,1.36-0.04,2.96-0.04,4.79c0,1.84,0,3.34,0,4.51c0,3.37,0.03,6.6,0.08,9.69H176.82z M195.83,447.41l-1.67,1.72
			c-1.32-0.93-3.8-2.64-7.43-5.11c-3.63-2.47-5.68-3.87-6.13-4.18v-0.01c0.94-0.71,2.69-2.02,5.25-3.93
			c2.55-1.91,5.14-3.92,7.77-6.01l1.74,1.42c-1.31,0.96-3.43,2.57-6.35,4.82s-4.47,3.44-4.65,3.58l0,0.02
			c0.46,0.31,2.09,1.41,4.9,3.31S194.25,446.38,195.83,447.41z"/>
		<path class="st3" d="M257.47,443.54c0,0.95-0.29,1.8-0.87,2.54s-1.38,1.34-2.4,1.81c-0.99,0.44-2.09,0.76-3.3,0.94
			c-1.21,0.18-2.49,0.28-3.83,0.28c-1.08,0-2.39-0.04-3.9-0.11l-0.13-2.05c1.61,0.11,3.09,0.17,4.42,0.17
			c0.87,0,1.78-0.07,2.73-0.21s1.72-0.31,2.31-0.53c0.7-0.26,1.26-0.58,1.67-0.97s0.64-0.87,0.68-1.42
			c0.04-0.59-0.16-1.13-0.59-1.61c-0.43-0.48-1.1-0.9-2.02-1.26c-0.72-0.28-1.5-0.58-2.36-0.91c-0.85-0.32-1.7-0.66-2.54-1.02
			c-1.07-0.45-1.94-1.03-2.63-1.73c-0.69-0.7-1.03-1.52-1.03-2.46c0-0.8,0.24-1.55,0.72-2.24c0.48-0.69,1.11-1.25,1.9-1.7
			c0.79-0.45,1.74-0.79,2.84-1.01c1.1-0.22,2.36-0.33,3.8-0.33c1.03,0,2.25,0.04,3.68,0.11l0.25,1.95
			c-1.61-0.08-3.05-0.13-4.31-0.13c-0.71,0-1.45,0.06-2.24,0.17c-0.79,0.11-1.5,0.31-2.13,0.58c-0.47,0.21-0.89,0.53-1.27,0.96
			c-0.37,0.43-0.56,0.88-0.56,1.35c0,0.55,0.22,1.03,0.66,1.46s1.1,0.82,1.97,1.17c0.99,0.41,1.89,0.76,2.71,1.06
			c0.82,0.3,1.47,0.55,1.96,0.75c1.36,0.54,2.33,1.17,2.93,1.91C257.17,441.79,257.47,442.61,257.47,443.54z"/>
		<path class="st3" d="M279.81,447.08c-0.08,1.11-0.14,1.8-0.17,2.05c-0.08,0-0.17,0-0.28,0s-0.23,0-0.35,0
			c-2.8-0.03-5.46-0.32-7.96-0.87c-2.51-0.55-4.51-1.39-6.01-2.51c-1.13-0.85-1.99-1.79-2.58-2.8c-0.59-1.02-0.88-2.2-0.88-3.54
			c0-1.21,0.3-2.34,0.89-3.41c0.59-1.06,1.38-1.96,2.35-2.7c1.59-1.2,3.53-2.08,5.84-2.65c2.31-0.57,4.83-0.87,7.57-0.91
			c0.16,0,0.5,0,1.02,0c0.08,0.93,0.14,1.64,0.17,2.14c-0.15,0-0.29,0-0.42,0c-0.13,0-0.25,0-0.38,0c-1.89,0.02-3.62,0.15-5.18,0.39
			c-1.57,0.24-2.97,0.61-4.21,1.11c-1.59,0.64-2.82,1.46-3.71,2.44s-1.33,2.17-1.33,3.56c0,1.34,0.41,2.51,1.22,3.52
			c0.81,1.01,2.02,1.84,3.62,2.51c1.28,0.54,2.77,0.94,4.46,1.21c1.69,0.27,3.5,0.42,5.42,0.45c0.17,0,0.32,0,0.46,0.01
			C279.52,447.1,279.66,447.1,279.81,447.08z"/>
		<path class="st3" d="M307.3,439.49c0,1.46-0.33,2.83-1,4.09c-0.67,1.26-1.6,2.34-2.8,3.25c-1.12,0.86-2.37,1.51-3.75,1.95
			c-1.37,0.44-2.92,0.66-4.64,0.66c-1.57,0-3.03-0.19-4.38-0.58s-2.58-0.98-3.68-1.78c-1.29-0.93-2.3-2.04-3.03-3.33
			c-0.73-1.28-1.09-2.7-1.09-4.26c0-1.47,0.29-2.81,0.88-4.01c0.59-1.2,1.47-2.29,2.66-3.27c1.15-0.93,2.44-1.62,3.87-2.1
			c1.43-0.47,3.01-0.71,4.74-0.71c1.76,0,3.32,0.22,4.69,0.67c1.37,0.44,2.62,1.1,3.77,1.97c1.27,0.98,2.21,2.09,2.83,3.32
			C306.99,436.58,307.3,437.96,307.3,439.49z M304.68,439.5c0-1.39-0.29-2.61-0.86-3.65s-1.46-1.97-2.65-2.76
			c-0.85-0.58-1.79-1.01-2.81-1.29c-1.02-0.27-2.12-0.41-3.28-0.41c-1.26,0-2.38,0.15-3.38,0.44c-1,0.29-1.92,0.75-2.78,1.36
			c-1.18,0.84-2.04,1.77-2.57,2.79c-0.53,1.02-0.8,2.17-0.8,3.46c0,1.32,0.29,2.51,0.88,3.55c0.59,1.05,1.47,1.97,2.64,2.76
			c0.85,0.58,1.79,1,2.81,1.27c1.02,0.27,2.1,0.41,3.22,0.41c1.2,0,2.3-0.14,3.29-0.42c1-0.28,1.95-0.72,2.85-1.32
			c1.14-0.79,2-1.7,2.57-2.73C304.39,441.93,304.68,440.78,304.68,439.5z"/>
		<path class="st3" d="M329.92,448.99c-4.53-3.83-8.1-6.8-10.7-8.91l0.06-0.17c0.64-0.11,1.3-0.3,1.96-0.57
			c0.67-0.27,1.29-0.6,1.86-0.98c0.57-0.38,1-0.81,1.3-1.3c0.3-0.49,0.43-1.08,0.4-1.78c-0.03-0.65-0.29-1.24-0.79-1.76
			c-0.5-0.52-1.27-0.93-2.32-1.21c-0.69-0.19-1.47-0.31-2.35-0.36c-0.88-0.05-1.75-0.08-2.61-0.08c-0.31,0-0.85,0.01-1.61,0.03
			c-0.04,2.24-0.05,3.89-0.05,4.96c0,1.07,0.01,1.92,0.01,2.55c0,1.22,0.01,4.38,0.04,9.49h-2.53c0.03-4.45,0.05-7.59,0.06-9.43
			c0-1.86,0-3.65,0-5.38s0-3.11,0-4.15c2.73-0.04,4.3-0.06,4.73-0.06c1.11,0,2.19,0.05,3.24,0.16c1.05,0.1,2.02,0.3,2.9,0.58
			c1.25,0.41,2.23,0.99,2.92,1.76c0.69,0.77,1.04,1.7,1.04,2.8c0,1.08-0.33,2.06-1,2.96c-0.67,0.9-1.71,1.65-3.14,2.25v0.03
			c1.11,0.96,3.86,3.23,8.24,6.81L329.92,448.99z"/>
		<path class="st3" d="M351.77,448.85c-4.44-0.02-7.13-0.03-8.09-0.03c-1.37,0-2.78,0-4.23,0.01c-1.45,0.01-2.55,0.01-3.29,0.01
			c0.05-2.9,0.07-5.99,0.07-9.28c0-1.19-0.01-2.64-0.03-4.35c-0.02-1.71-0.03-3.46-0.03-5.27c0.88,0,1.9,0,3.07,0.01
			c1.17,0.01,2.58,0.01,4.22,0.01c1.27,0,3.96-0.01,8.07-0.03V432c-4.39-0.03-7.03-0.04-7.92-0.04c-1.18,0-2.18,0-3.01,0.01
			c-0.83,0-1.46,0.01-1.9,0.01c0,0.73,0,1.63-0.01,2.7c-0.01,1.07-0.01,2.2-0.01,3.38c0.85,0,1.89,0,3.11,0.01
			c1.23,0.01,2.07,0.01,2.53,0.01c1.17,0,3.57-0.01,7.21-0.03v2.04c-3.66-0.02-5.97-0.03-6.95-0.03c-0.34,0-1.13,0-2.37,0.01
			c-1.24,0.01-2.42,0.01-3.54,0.01c0.01,4.17,0.01,6.42,0.01,6.73c0.62,0,1.49,0,2.61,0.01c1.12,0.01,2.28,0.01,3.5,0.01
			c1.21-0.01,3.53-0.02,6.96-0.03V448.85z"/>
		<path class="st3" d="M419.07,429.92c-0.03,1.6-0.04,3.3-0.05,5.11s-0.01,3.1-0.01,3.87c0,3.4,0.02,6.5,0.06,9.32l-2.02,0.67
			c-3.01-2.84-6.54-6.12-10.59-9.84c-4.05-3.72-6.27-5.77-6.67-6.14h-0.01c0,3.13,0.06,8.46,0.17,15.99h-2.44
			c0.04-3.81,0.06-6.69,0.06-8.64c0-1.29-0.01-2.74-0.03-4.35c-0.02-1.6-0.03-3.34-0.03-5.2l2.35-0.81
			c0.55,0.56,2.85,2.71,6.92,6.46c4.06,3.75,7.4,6.8,10.02,9.16h0.03c0-0.92-0.02-3.26-0.06-7.01c-0.04-3.75-0.06-6.61-0.06-8.58
			H419.07z"/>
		<path class="st3" d="M447.09,447.99l-2.21,1.25c-0.11-0.18-0.6-1.01-1.5-2.49c-0.89-1.48-1.83-3-2.82-4.58h-12.16
			c-1.23,2.01-2.17,3.51-2.81,4.5c-0.64,0.99-1.16,1.85-1.55,2.56l-1.79-1.04c0.32-0.51,1.74-2.75,4.25-6.73s4.98-7.92,7.38-11.83
			h1.77c2.29,3.73,4.75,7.68,7.38,11.85C445.67,445.67,447.02,447.83,447.09,447.99z M439.38,440.24c-0.65-1.11-1.44-2.41-2.35-3.9
			c-0.91-1.49-1.74-2.83-2.49-4.01h-0.06c-0.59,0.98-1.42,2.32-2.48,4.01c-1.06,1.69-1.87,3-2.41,3.9l-0.01,0.01h9.8L439.38,440.24z
			"/>
		<path class="st3" d="M481.36,448.68l-2.53,0.34l-4.16-16.52l-0.03,0c-0.44,0.73-1.73,2.84-3.85,6.34
			c-2.12,3.5-3.74,6.19-4.84,8.07h-2.35c-1.39-2.31-3.04-5.04-4.96-8.18s-3.12-5.08-3.59-5.83l-0.08,0.01
			c-2.36,8.34-3.85,13.69-4.45,16.05l-2.49-0.31c1.07-3.43,2.88-9.63,5.42-18.62l2.49-0.27c3.6,5.88,6.62,10.74,9.06,14.58h0.07
			c1.63-2.73,4.6-7.6,8.91-14.61l2.32,0.16C478.78,439.32,480.47,445.58,481.36,448.68z"/>
		<path class="st3" d="M501.61,448.85c-4.44-0.02-7.13-0.03-8.09-0.03c-1.37,0-2.78,0-4.23,0.01c-1.45,0.01-2.55,0.01-3.29,0.01
			c0.05-2.9,0.07-5.99,0.07-9.28c0-1.19-0.01-2.64-0.03-4.35c-0.02-1.71-0.03-3.46-0.03-5.27c0.88,0,1.9,0,3.07,0.01
			c1.17,0.01,2.58,0.01,4.22,0.01c1.28,0,3.96-0.01,8.07-0.03V432c-4.39-0.03-7.03-0.04-7.92-0.04c-1.18,0-2.18,0-3.01,0.01
			c-0.82,0-1.46,0.01-1.9,0.01c0,0.73,0,1.63-0.01,2.7s-0.01,2.2-0.01,3.38c0.85,0,1.89,0,3.11,0.01c1.23,0.01,2.07,0.01,2.53,0.01
			c1.17,0,3.57-0.01,7.21-0.03v2.04c-3.66-0.02-5.97-0.03-6.95-0.03c-0.34,0-1.13,0-2.37,0.01c-1.24,0.01-2.42,0.01-3.54,0.01
			c0.01,4.17,0.01,6.42,0.01,6.73c0.62,0,1.49,0,2.61,0.01c1.12,0.01,2.29,0.01,3.5,0.01c1.21-0.01,3.53-0.02,6.96-0.03V448.85z"/>
	</g>
</g>
<g>
	<g>
	</g>
</g>
<g>
	<g>
		<path class="st3" d="M128.71,505.64h-2.36c0.01-0.42,0.02-1.54,0.04-3.37s0.03-3.11,0.03-3.82c0-0.75,0-1.72-0.01-2.93
			c0-1.21-0.01-1.94-0.02-2.19l-0.03-0.01c-0.42,0.2-1.22,0.56-2.4,1.09c-1.17,0.53-2.44,1.1-3.8,1.73l-0.8-1.42
			c0.74-0.38,2.03-1.04,3.89-1.98c1.85-0.94,3.03-1.54,3.52-1.79l1.91,0.95c-0.04,1.42-0.06,2.75-0.06,3.99s0,2.13,0,2.65
			c0,0.93,0.01,2.24,0.04,3.93C128.69,504.14,128.71,505.2,128.71,505.64z"/>
		<path class="st3" d="M146.78,501.52c0,0.69-0.21,1.32-0.65,1.89s-1.08,1.05-1.95,1.44c-0.81,0.37-1.79,0.62-2.93,0.76
			c-1.14,0.14-2.41,0.21-3.8,0.21c-0.56,0-1.17-0.02-1.82-0.06c-0.66-0.04-1.19-0.08-1.6-0.14l-0.18-1.94
			c0.24,0.05,0.76,0.1,1.56,0.15c0.81,0.05,1.65,0.08,2.53,0.08c0.71,0,1.44-0.03,2.2-0.08c0.76-0.05,1.44-0.15,2.03-0.3
			c0.7-0.18,1.23-0.41,1.61-0.68c0.37-0.27,0.56-0.64,0.56-1.1c0-0.31-0.12-0.59-0.36-0.84c-0.24-0.25-0.7-0.49-1.37-0.72
			c-0.6-0.21-1.43-0.45-2.46-0.71c-1.04-0.27-1.99-0.56-2.85-0.89c-0.97-0.37-1.69-0.83-2.15-1.38c-0.46-0.55-0.69-1.17-0.69-1.86
			c0-0.74,0.23-1.38,0.7-1.94c0.47-0.56,1.2-1.03,2.19-1.43c0.62-0.25,1.39-0.45,2.3-0.59s1.95-0.21,3.13-0.21
			c0.52,0,1.14,0.01,1.85,0.04c0.71,0.02,1.15,0.04,1.3,0.06l0.18,1.91c-0.18-0.01-0.64-0.03-1.38-0.06
			c-0.74-0.03-1.52-0.05-2.34-0.05c-0.74,0-1.46,0.04-2.16,0.13c-0.7,0.08-1.28,0.2-1.73,0.34c-0.58,0.18-1,0.41-1.28,0.69
			c-0.27,0.28-0.41,0.59-0.41,0.93c0,0.32,0.13,0.61,0.38,0.87s0.73,0.51,1.43,0.74c0.94,0.32,1.88,0.6,2.84,0.85
			c0.95,0.25,1.7,0.46,2.24,0.65c1.14,0.4,1.94,0.88,2.39,1.44C146.56,500.27,146.78,500.87,146.78,501.52z"/>
		<path class="st3" d="M160.99,503.89l-0.35,1.83c-0.1,0.01-0.28,0.02-0.52,0.02c-0.24,0-0.55,0.01-0.93,0.01
			c-2.5,0-4.35-0.39-5.56-1.16c-1.2-0.77-1.81-2-1.81-3.68c0-1.25,0.01-2.57,0.04-3.96c0.03-1.4,0.04-2.64,0.04-3.74h-3.2v-1.9h3.29
			v-3.38h2.24v3.38h6.87v1.9h-6.9c0,0.34,0,0.95-0.01,1.83c0,0.88-0.01,1.45-0.01,1.71c0,0.52,0,1.14,0.01,1.88
			c0.01,0.73,0.01,1.37,0.01,1.91c0,1.19,0.42,2.05,1.25,2.59s2.19,0.81,4.06,0.81c0.38,0,0.68,0,0.9-0.01
			C160.65,503.91,160.83,503.9,160.99,503.89z"/>
		<path class="st3" d="M265.58,498.5c0,1.16-0.24,2.2-0.73,3.13c-0.49,0.93-1.2,1.73-2.13,2.41c-0.99,0.72-2.02,1.23-3.08,1.54
			c-1.06,0.31-2.35,0.47-3.86,0.47c-1.41,0-2.67-0.17-3.78-0.5s-2.13-0.84-3.06-1.51c-0.94-0.69-1.66-1.51-2.15-2.46
			c-0.49-0.95-0.73-1.99-0.73-3.11c0-1.12,0.21-2.1,0.62-2.93c0.42-0.83,1.09-1.63,2.01-2.41c0.89-0.75,1.94-1.3,3.16-1.66
			c1.22-0.36,2.55-0.54,3.97-0.54c1.45,0,2.77,0.18,3.94,0.54c1.17,0.36,2.2,0.88,3.09,1.57c0.91,0.7,1.59,1.51,2.04,2.42
			C265.35,496.38,265.58,497.4,265.58,498.5z M263.09,498.67c0-0.94-0.19-1.78-0.57-2.5c-0.38-0.72-0.96-1.37-1.76-1.93
			c-0.65-0.46-1.38-0.81-2.19-1.04c-0.81-0.23-1.72-0.35-2.73-0.35c-1.02,0-1.92,0.12-2.71,0.35c-0.79,0.23-1.53,0.58-2.22,1.04
			c-0.76,0.5-1.33,1.12-1.71,1.87c-0.39,0.75-0.58,1.54-0.58,2.39c0,0.97,0.21,1.82,0.64,2.56s1.02,1.36,1.8,1.89
			c0.66,0.45,1.39,0.78,2.18,0.98c0.79,0.2,1.64,0.3,2.55,0.3c0.93,0,1.84-0.12,2.7-0.35c0.87-0.24,1.58-0.54,2.14-0.92
			c0.87-0.58,1.5-1.21,1.88-1.86S263.09,499.62,263.09,498.67z"/>
		<path class="st3" d="M288.28,498.5c0,1.16-0.24,2.2-0.73,3.13c-0.49,0.93-1.2,1.73-2.13,2.41c-0.99,0.72-2.02,1.23-3.08,1.54
			c-1.06,0.31-2.35,0.47-3.86,0.47c-1.41,0-2.67-0.17-3.78-0.5s-2.13-0.84-3.06-1.51c-0.94-0.69-1.66-1.51-2.15-2.46
			c-0.49-0.95-0.73-1.99-0.73-3.11c0-1.12,0.21-2.1,0.62-2.93c0.42-0.83,1.09-1.63,2.01-2.41c0.89-0.75,1.94-1.3,3.16-1.66
			c1.22-0.36,2.55-0.54,3.97-0.54c1.45,0,2.77,0.18,3.94,0.54c1.17,0.36,2.2,0.88,3.09,1.57c0.91,0.7,1.59,1.51,2.04,2.42
			C288.05,496.38,288.28,497.4,288.28,498.5z M285.78,498.67c0-0.94-0.19-1.78-0.57-2.5c-0.38-0.72-0.96-1.37-1.76-1.93
			c-0.65-0.46-1.38-0.81-2.19-1.04c-0.81-0.23-1.72-0.35-2.73-0.35c-1.02,0-1.92,0.12-2.71,0.35c-0.79,0.23-1.53,0.58-2.22,1.04
			c-0.76,0.5-1.33,1.12-1.71,1.87c-0.39,0.75-0.58,1.54-0.58,2.39c0,0.97,0.21,1.82,0.64,2.56s1.02,1.36,1.8,1.89
			c0.66,0.45,1.39,0.78,2.18,0.98c0.79,0.2,1.64,0.3,2.55,0.3c0.93,0,1.84-0.12,2.7-0.35c0.87-0.24,1.58-0.54,2.14-0.92
			c0.87-0.58,1.5-1.21,1.88-1.86S285.78,499.62,285.78,498.67z"/>
		<path class="st3" d="M307.52,492.93c-3.67,4.95-6.62,8.95-8.83,12.02c-2.21,3.07-3.43,4.76-3.66,5.08l-1.81-1.18
			c3.19-4.23,5.77-7.69,7.73-10.38c1.96-2.69,3.14-4.35,3.55-4.97l-0.03-0.03c-0.31,0-0.81,0-1.49,0c-0.68,0-1.39,0-2.1,0
			c-2.07,0.01-4.28,0.03-6.64,0.05c-2.36,0.02-3.67,0.04-3.94,0.04v-2.05c0.23,0,1.15,0,2.77,0.01c1.62,0.01,3.32,0.01,5.09,0.01
			c1.51,0,3.21,0,5.09-0.01c1.88,0,2.94-0.01,3.16-0.02L307.52,492.93z"/>
		<path class="st3" d="M327.13,499.65c0,0.89-0.22,1.74-0.65,2.54c-0.43,0.81-1.06,1.51-1.88,2.1c-0.78,0.57-1.69,1-2.72,1.3
			c-1.03,0.3-2.16,0.45-3.4,0.45c-1.25,0-2.42-0.13-3.49-0.39s-2.04-0.69-2.91-1.3c-0.8-0.56-1.39-1.22-1.78-2
			c-0.38-0.77-0.57-1.61-0.57-2.51c0-1.06,0.3-2.16,0.9-3.29c0.6-1.14,1.52-2.27,2.75-3.41c1.24-1.13,2.58-2.29,4.04-3.48
			c1.46-1.19,3.02-2.41,4.69-3.66l1.7,1.42c-0.95,0.71-2.21,1.66-3.76,2.85s-2.67,2.06-3.35,2.6l0.01,0.01
			c1.05,0.1,2.1,0.29,3.16,0.55c1.06,0.26,1.96,0.54,2.69,0.83c1.48,0.59,2.61,1.35,3.39,2.3
			C326.74,497.54,327.13,498.56,327.13,499.65z M324.58,499.86c0-0.91-0.37-1.72-1.11-2.43c-0.74-0.71-1.83-1.32-3.27-1.82
			c-0.87-0.3-1.8-0.54-2.8-0.7s-1.78-0.26-2.34-0.29c-0.77,0.64-1.42,1.43-1.94,2.36s-0.78,1.83-0.78,2.71c0,0.75,0.17,1.42,0.51,2
			c0.34,0.58,0.76,1.03,1.26,1.37c0.56,0.38,1.23,0.66,2.03,0.85s1.55,0.28,2.27,0.28c0.77,0,1.55-0.1,2.34-0.29
			c0.78-0.19,1.45-0.48,2.01-0.87c0.62-0.43,1.08-0.9,1.38-1.4C324.44,501.13,324.58,500.54,324.58,499.86z"/>
		<path class="st3" d="M344.27,493.54c-0.26,0-1.83,0-4.69,0s-4.83,0-5.88,0v5.22c1.27,0.06,2.48,0.17,3.62,0.34
			s2.07,0.39,2.81,0.65c1.22,0.43,2.14,1.02,2.75,1.77c0.62,0.75,0.93,1.61,0.93,2.61c0,0.98-0.33,1.87-1,2.67
			c-0.67,0.8-1.67,1.46-3.02,1.98c-0.93,0.36-2.07,0.62-3.41,0.79s-2.76,0.27-4.28,0.3c-0.25,0-0.67,0-1.27,0l-0.33-1.96
			c0.48,0,0.82,0,1.02,0c1.19-0.01,2.34-0.06,3.45-0.14c1.11-0.09,2.1-0.25,2.97-0.48c1.08-0.29,1.91-0.69,2.48-1.2
			s0.85-1.12,0.85-1.85c0-0.68-0.28-1.26-0.83-1.76c-0.55-0.49-1.39-0.89-2.5-1.2c-0.59-0.16-1.37-0.29-2.35-0.4
			c-0.98-0.1-2.01-0.17-3.07-0.18c-0.21,0-0.4,0-0.57,0s-0.33,0-0.48,0c0-0.21,0-0.81,0.01-1.81c0.01-1,0.01-1.95,0.01-2.87
			c0-0.88,0-1.78-0.01-2.71c-0.01-0.92-0.01-1.52-0.01-1.78c0.28,0,1.1,0,2.46,0.01c1.35,0,2.61,0.01,3.77,0.01
			c1.27,0,2.63,0,4.1-0.01c1.47,0,2.3-0.01,2.49-0.01V493.54z"/>
		<path class="st3" d="M365.96,498.5c0,1.16-0.24,2.2-0.73,3.13c-0.49,0.93-1.2,1.73-2.13,2.41c-0.99,0.72-2.02,1.23-3.08,1.54
			c-1.06,0.31-2.35,0.47-3.86,0.47c-1.41,0-2.67-0.17-3.78-0.5s-2.13-0.84-3.06-1.51c-0.94-0.69-1.66-1.51-2.15-2.46
			c-0.49-0.95-0.73-1.99-0.73-3.11c0-1.12,0.21-2.1,0.62-2.93c0.42-0.83,1.08-1.63,2.01-2.41c0.89-0.75,1.94-1.3,3.16-1.66
			c1.22-0.36,2.55-0.54,3.97-0.54c1.45,0,2.77,0.18,3.94,0.54c1.17,0.36,2.2,0.88,3.09,1.57c0.91,0.7,1.59,1.51,2.04,2.42
			C365.73,496.38,365.96,497.4,365.96,498.5z M363.47,498.67c0-0.94-0.19-1.78-0.57-2.5c-0.38-0.72-0.96-1.37-1.76-1.93
			c-0.65-0.46-1.38-0.81-2.2-1.04c-0.81-0.23-1.72-0.35-2.73-0.35c-1.02,0-1.92,0.12-2.71,0.35c-0.79,0.23-1.53,0.58-2.22,1.04
			c-0.76,0.5-1.33,1.12-1.71,1.87c-0.39,0.75-0.58,1.54-0.58,2.39c0,0.97,0.21,1.82,0.64,2.56s1.02,1.36,1.8,1.89
			c0.66,0.45,1.39,0.78,2.18,0.98c0.79,0.2,1.64,0.3,2.55,0.3c0.93,0,1.84-0.12,2.7-0.35c0.87-0.24,1.58-0.54,2.14-0.92
			c0.87-0.58,1.5-1.21,1.88-1.86S363.47,499.62,363.47,498.67z"/>
		<path class="st3" d="M415.58,505.64h-2.44c0-0.28,0.01-1,0.02-2.15c0.01-1.15,0.02-2.13,0.02-2.95c0-0.92-0.01-1.74-0.02-2.49
			c-0.01-0.74-0.02-1.29-0.02-1.65c0-1.06-0.31-1.89-0.93-2.5c-0.62-0.61-1.58-0.91-2.86-0.91c-0.91,0-1.91,0.16-3.01,0.47
			s-2.34,0.76-3.73,1.36c0,0.26,0,0.83-0.01,1.71s-0.01,1.7-0.01,2.46c0,1.29,0.01,2.67,0.04,4.14c0.02,1.46,0.04,2.3,0.04,2.51
			h-2.44c0-0.21,0.01-0.96,0.02-2.26c0.01-1.3,0.02-2.76,0.02-4.38c0-1.89-0.01-3.35-0.02-4.38c-0.01-1.03-0.02-2.14-0.02-3.31h2.38
			l-0.01,1.61h0.01c1.19-0.55,2.46-1.01,3.81-1.4c1.35-0.39,2.61-0.58,3.78-0.58c1.76,0,3.09,0.41,4.01,1.23s1.37,1.93,1.37,3.33
			c0,0.75-0.01,1.55-0.02,2.42c-0.01,0.87-0.02,1.66-0.02,2.38c0,0.71,0.01,1.72,0.02,3.03
			C415.58,504.64,415.58,505.41,415.58,505.64z"/>
		<path class="st3" d="M434.33,497.59c0,1.75-0.01,3.49-0.02,5.23c-0.01,1.74-0.02,2.69-0.02,2.84c-0.19,0.02-0.84,0.06-1.95,0.11
			s-2.15,0.08-3.14,0.08c-1.43,0-2.65-0.06-3.67-0.19c-1.02-0.13-1.91-0.32-2.64-0.59c-1.07-0.39-1.88-0.9-2.44-1.53
			c-0.56-0.63-0.83-1.33-0.83-2.11c0-0.91,0.34-1.72,1.02-2.44s1.73-1.27,3.16-1.64c1-0.26,2.23-0.49,3.7-0.67
			c1.46-0.18,2.94-0.32,4.43-0.4c-0.09-0.71-0.35-1.28-0.8-1.72c-0.45-0.44-1.07-0.79-1.87-1.04c-0.59-0.19-1.24-0.32-1.92-0.39
			c-0.69-0.07-1.48-0.11-2.38-0.11c-0.75,0-1.35,0.01-1.79,0.03c-0.44,0.02-0.86,0.04-1.26,0.07l0.28-1.91
			c0.24-0.01,0.62-0.03,1.15-0.07c0.53-0.04,1.24-0.06,2.12-0.06c1.55,0,2.88,0.12,3.99,0.37c1.11,0.25,2.02,0.61,2.73,1.09
			c0.69,0.46,1.22,1.09,1.6,1.89C434.14,495.24,434.33,496.29,434.33,497.59z M431.95,500.82c0-0.46,0-0.94-0.01-1.44
			c-0.01-0.5-0.01-0.9-0.01-1.22c-0.83,0.02-1.94,0.09-3.34,0.21c-1.39,0.12-2.58,0.3-3.55,0.52c-1.14,0.26-1.91,0.62-2.31,1.05
			c-0.4,0.44-0.6,0.89-0.6,1.35c0,0.57,0.23,1.05,0.68,1.44c0.45,0.4,1.15,0.71,2.09,0.95c0.54,0.13,1.19,0.22,1.97,0.28
			c0.77,0.05,1.71,0.08,2.8,0.08c0.25,0,0.55,0,0.9-0.01c0.36-0.01,0.81-0.03,1.36-0.07C431.94,502.77,431.95,501.72,431.95,500.82z
			"/>
		<path class="st3" d="M466.62,505.64h-2.44c0-0.1,0.01-0.58,0.02-1.43c0.01-0.85,0.02-2.08,0.02-3.68c0-1.25,0-2.21-0.01-2.9
			c-0.01-0.68-0.02-1.16-0.03-1.44c-0.04-1.05-0.32-1.84-0.85-2.39c-0.53-0.54-1.49-0.81-2.87-0.81c-0.97,0-1.96,0.15-2.95,0.44
			c-1,0.29-2.04,0.67-3.12,1.13c0.01,0.06,0.02,0.21,0.04,0.47c0.01,0.25,0.02,0.45,0.02,0.59c0,0.71-0.01,1.36-0.02,1.96
			c-0.01,0.6-0.02,1.53-0.02,2.78c0,0.95,0.01,2.04,0.02,3.25c0.01,1.21,0.02,1.89,0.02,2.02H452c0-0.16,0.01-0.78,0.02-1.86
			c0.01-1.08,0.02-2.16,0.02-3.26c0-0.87,0-1.74-0.01-2.61c-0.01-0.87-0.02-1.45-0.03-1.72c-0.02-0.64-0.12-1.18-0.3-1.61
			c-0.18-0.43-0.46-0.78-0.84-1.05c-0.27-0.19-0.62-0.33-1.05-0.41s-0.93-0.13-1.53-0.13c-0.98,0-2.02,0.19-3.11,0.56
			c-1.09,0.37-2.07,0.75-2.94,1.13c0,0.26,0,0.96-0.01,2.08c0,1.12-0.01,2.03-0.01,2.71c0,1.15,0.01,2.42,0.02,3.79
			c0.01,1.38,0.02,2.17,0.02,2.38h-2.44c0-0.16,0.01-0.75,0.02-1.77c0.01-1.02,0.02-2.53,0.02-4.53c0-1.05-0.01-2.31-0.02-3.79
			c-0.01-1.48-0.02-2.89-0.02-4.24h2.44l-0.03,1.37l0.04,0.03c0.91-0.4,1.97-0.79,3.19-1.18c1.22-0.39,2.35-0.59,3.39-0.59
			c1.14,0,2.11,0.16,2.91,0.48c0.8,0.32,1.43,0.82,1.89,1.49h0.04c1.28-0.58,2.54-1.06,3.77-1.42c1.23-0.36,2.42-0.54,3.57-0.54
			c1.73,0,3.09,0.4,4.08,1.21c1,0.81,1.49,1.97,1.49,3.48c0,1.14-0.01,2.06-0.02,2.75c-0.01,0.69-0.02,1.36-0.02,1.99
			c0,0.88,0.01,1.95,0.02,3.22C466.61,504.86,466.62,505.54,466.62,505.64z"/>
		<path class="st3" d="M486.99,498.19h-14.03c0.04,0.96,0.34,1.84,0.92,2.63s1.43,1.43,2.55,1.93c0.73,0.32,1.59,0.57,2.59,0.75
			c1,0.18,2.1,0.27,3.3,0.27c1,0,1.72-0.01,2.16-0.02c0.44-0.01,0.77-0.04,1-0.08l-0.35,2c-0.15,0.02-0.43,0.04-0.85,0.05
			c-0.42,0.01-1.11,0.02-2.08,0.02c-1.9,0-3.57-0.17-5.02-0.52s-2.68-0.89-3.7-1.63c-0.95-0.69-1.67-1.5-2.17-2.44
			s-0.74-1.91-0.74-2.91c0-1.07,0.21-2.04,0.62-2.91c0.41-0.87,1.05-1.68,1.93-2.42c0.72-0.6,1.6-1.08,2.66-1.44
			c1.06-0.35,2.21-0.53,3.47-0.53c1.2,0,2.25,0.17,3.16,0.5c0.91,0.33,1.65,0.74,2.24,1.21c0.74,0.59,1.31,1.39,1.73,2.37
			S486.99,497.06,486.99,498.19z M484.49,496.45c-0.21-1.06-0.77-1.93-1.7-2.63c-0.93-0.69-2.15-1.04-3.67-1.04
			c-1.49,0-2.74,0.31-3.75,0.92c-1.01,0.61-1.72,1.53-2.14,2.75H484.49z"/>
		<path class="st3" d="M498.41,505.64h-2.37c0.01-0.42,0.02-1.54,0.04-3.37c0.02-1.83,0.03-3.11,0.03-3.82c0-0.75,0-1.72-0.01-2.93
			c0-1.21-0.01-1.94-0.02-2.19l-0.03-0.01c-0.42,0.2-1.22,0.56-2.4,1.09c-1.17,0.53-2.44,1.1-3.8,1.73l-0.8-1.42
			c0.74-0.38,2.03-1.04,3.89-1.98c1.85-0.94,3.03-1.54,3.52-1.79l1.91,0.95c-0.04,1.42-0.06,2.75-0.06,3.99s0,2.13,0,2.65
			c0,0.93,0.01,2.24,0.04,3.93C498.38,504.14,498.4,505.2,498.41,505.64z"/>
	</g>
</g>
<g>
	<g>
		<path class="st3" d="M137.38,541.98c-0.21,0-1.27,0-3.17-0.01s-3.7-0.01-5.37-0.01c-1.59,0-3.27,0.01-5.06,0.04
			c-1.79,0.02-2.84,0.02-3.16-0.02l-0.61-1.68c1.51-0.58,2.89-1.11,4.13-1.62c1.25-0.5,2.22-0.96,2.92-1.37
			c1.4-0.77,2.4-1.49,3.01-2.15c0.61-0.66,0.91-1.37,0.91-2.15c0-0.66-0.22-1.24-0.66-1.75c-0.44-0.51-1.01-0.87-1.72-1.1
			c-0.74-0.24-1.56-0.42-2.48-0.54c-0.92-0.12-1.82-0.18-2.71-0.18c-0.39,0-0.78,0-1.19,0.01c-0.41,0-0.77,0.02-1.1,0.05l0.27-1.94
			c0.25-0.02,0.6-0.03,1.07-0.04c0.47-0.01,0.84-0.01,1.13-0.01c1.4,0,2.6,0.08,3.6,0.23c1.01,0.16,1.93,0.4,2.78,0.73
			c1.14,0.42,2.02,1,2.63,1.73c0.61,0.73,0.91,1.6,0.91,2.61c0,0.75-0.25,1.5-0.76,2.27c-0.51,0.77-1.16,1.44-1.98,2.02
			c-0.72,0.55-1.82,1.16-3.32,1.84c-1.5,0.68-2.49,1.1-2.98,1.26l0.01,0.03c0.89-0.04,1.7-0.07,2.44-0.09c0.74-0.02,1.4-0.03,2-0.03
			c1.32,0,2.96-0.01,4.93-0.04s3.14-0.04,3.54-0.04V541.98z"/>
		<path class="st3" d="M155.73,542.01h-2.44c0-0.28,0.01-1,0.02-2.15c0.01-1.15,0.02-2.13,0.02-2.95c0-0.92-0.01-1.74-0.02-2.49
			c-0.01-0.74-0.02-1.29-0.02-1.65c0-1.06-0.31-1.89-0.93-2.5c-0.62-0.61-1.58-0.91-2.86-0.91c-0.91,0-1.91,0.16-3.01,0.47
			c-1.1,0.31-2.34,0.76-3.73,1.36c0,0.26,0,0.83-0.01,1.71c0,0.88-0.01,1.7-0.01,2.46c0,1.29,0.01,2.67,0.04,4.14
			c0.02,1.46,0.04,2.3,0.04,2.51h-2.44c0-0.21,0.01-0.96,0.02-2.26c0.01-1.3,0.02-2.76,0.02-4.38c0-1.89-0.01-3.35-0.02-4.38
			c-0.01-1.03-0.02-2.14-0.02-3.31h2.38l-0.01,1.61h0.01c1.19-0.55,2.46-1.01,3.81-1.4c1.35-0.39,2.61-0.58,3.78-0.58
			c1.76,0,3.09,0.41,4.01,1.23s1.37,1.93,1.37,3.33c0,0.75-0.01,1.55-0.02,2.42c-0.01,0.87-0.02,1.66-0.02,2.38
			c0,0.71,0.01,1.72,0.02,3.03C155.73,541.02,155.73,541.79,155.73,542.01z"/>
		<path class="st3" d="M175.78,542.21c-0.12,0-0.35,0-0.69,0c-0.33,0-0.67,0-1,0c-1.84,0-3.62-0.1-5.34-0.29s-3.07-0.47-4.05-0.84
			c-1.69-0.58-2.95-1.35-3.78-2.3c-0.83-0.95-1.25-2.09-1.25-3.43c0-1.4,0.44-2.64,1.33-3.73c0.89-1.09,2.37-1.99,4.45-2.68
			c1.21-0.41,2.49-0.7,3.83-0.88c1.35-0.18,2.72-0.28,4.11-0.28l-0.03-6.51h2.41c0,0.17-0.01,1.53-0.03,4.08s-0.03,5.03-0.03,7.43
			c0,1.91,0.01,3.59,0.03,5.04C175.77,539.26,175.78,540.73,175.78,542.21z M173.4,532.35c0-0.51,0-0.96,0-1.34
			c0-0.39,0-0.82,0-1.29c-1.19,0-2.38,0.07-3.56,0.2c-1.19,0.13-2.3,0.36-3.33,0.69c-1.38,0.42-2.44,1.04-3.17,1.85
			s-1.1,1.74-1.1,2.79c0,0.89,0.31,1.67,0.93,2.35s1.56,1.26,2.82,1.73c0.89,0.32,1.91,0.57,3.07,0.74
			c1.16,0.17,2.42,0.26,3.77,0.26c0.1,0,0.2,0,0.28,0c0.08,0,0.16,0,0.25,0c0-0.07,0.01-0.78,0.03-2.14
			C173.4,536.85,173.4,534.9,173.4,532.35z"/>
		<path class="st3" d="M265.58,534.88c0,1.16-0.24,2.2-0.73,3.13c-0.49,0.93-1.2,1.73-2.13,2.41c-0.99,0.72-2.02,1.23-3.08,1.54
			c-1.06,0.31-2.35,0.47-3.86,0.47c-1.41,0-2.67-0.17-3.78-0.5s-2.13-0.84-3.06-1.51c-0.94-0.69-1.66-1.51-2.15-2.46
			c-0.49-0.95-0.73-1.99-0.73-3.11c0-1.12,0.21-2.1,0.62-2.93c0.42-0.83,1.09-1.63,2.01-2.41c0.89-0.75,1.94-1.3,3.16-1.66
			c1.22-0.36,2.55-0.54,3.97-0.54c1.45,0,2.77,0.18,3.94,0.54c1.17,0.36,2.2,0.88,3.09,1.57c0.91,0.7,1.59,1.51,2.04,2.42
			C265.35,532.76,265.58,533.77,265.58,534.88z M263.09,535.05c0-0.94-0.19-1.78-0.57-2.5c-0.38-0.72-0.96-1.37-1.76-1.93
			c-0.65-0.46-1.38-0.81-2.19-1.04c-0.81-0.23-1.72-0.35-2.73-0.35c-1.02,0-1.92,0.12-2.71,0.35c-0.79,0.23-1.53,0.58-2.22,1.04
			c-0.76,0.5-1.33,1.12-1.71,1.87c-0.39,0.75-0.58,1.54-0.58,2.39c0,0.97,0.21,1.82,0.64,2.56s1.02,1.36,1.8,1.89
			c0.66,0.45,1.39,0.78,2.18,0.98c0.79,0.2,1.64,0.3,2.55,0.3c0.93,0,1.84-0.12,2.7-0.35c0.87-0.24,1.58-0.54,2.14-0.92
			c0.87-0.58,1.5-1.21,1.88-1.86S263.09,536,263.09,535.05z"/>
		<path class="st3" d="M288.28,534.88c0,1.16-0.24,2.2-0.73,3.13c-0.49,0.93-1.2,1.73-2.13,2.41c-0.99,0.72-2.02,1.23-3.08,1.54
			c-1.06,0.31-2.35,0.47-3.86,0.47c-1.41,0-2.67-0.17-3.78-0.5s-2.13-0.84-3.06-1.51c-0.94-0.69-1.66-1.51-2.15-2.46
			c-0.49-0.95-0.73-1.99-0.73-3.11c0-1.12,0.21-2.1,0.62-2.93c0.42-0.83,1.09-1.63,2.01-2.41c0.89-0.75,1.94-1.3,3.16-1.66
			c1.22-0.36,2.55-0.54,3.97-0.54c1.45,0,2.77,0.18,3.94,0.54c1.17,0.36,2.2,0.88,3.09,1.57c0.91,0.7,1.59,1.51,2.04,2.42
			C288.05,532.76,288.28,533.77,288.28,534.88z M285.78,535.05c0-0.94-0.19-1.78-0.57-2.5c-0.38-0.72-0.96-1.37-1.76-1.93
			c-0.65-0.46-1.38-0.81-2.19-1.04c-0.81-0.23-1.72-0.35-2.73-0.35c-1.02,0-1.92,0.12-2.71,0.35c-0.79,0.23-1.53,0.58-2.22,1.04
			c-0.76,0.5-1.33,1.12-1.71,1.87c-0.39,0.75-0.58,1.54-0.58,2.39c0,0.97,0.21,1.82,0.64,2.56s1.02,1.36,1.8,1.89
			c0.66,0.45,1.39,0.78,2.18,0.98c0.79,0.2,1.64,0.3,2.55,0.3c0.93,0,1.84-0.12,2.7-0.35c0.87-0.24,1.58-0.54,2.14-0.92
			c0.87-0.58,1.5-1.21,1.88-1.86S285.78,536,285.78,535.05z"/>
		<path class="st3" d="M309.12,536.02c0,0.89-0.22,1.74-0.65,2.54c-0.43,0.81-1.06,1.51-1.88,2.1c-0.78,0.57-1.69,1-2.72,1.3
			c-1.03,0.3-2.16,0.45-3.4,0.45c-1.25,0-2.42-0.13-3.49-0.39c-1.07-0.26-2.04-0.69-2.91-1.3c-0.8-0.56-1.39-1.22-1.78-2
			c-0.38-0.77-0.57-1.61-0.57-2.51c0-1.06,0.3-2.16,0.9-3.29c0.6-1.14,1.52-2.27,2.75-3.41c1.24-1.13,2.58-2.29,4.04-3.48
			c1.46-1.19,3.02-2.41,4.69-3.66l1.7,1.42c-0.95,0.71-2.21,1.66-3.76,2.85c-1.56,1.19-2.67,2.06-3.35,2.6l0.01,0.01
			c1.05,0.1,2.1,0.29,3.16,0.55c1.06,0.26,1.96,0.54,2.69,0.83c1.48,0.59,2.61,1.35,3.39,2.3
			C308.73,533.92,309.12,534.94,309.12,536.02z M306.57,536.24c0-0.91-0.37-1.72-1.1-2.43c-0.74-0.71-1.83-1.32-3.27-1.82
			c-0.87-0.3-1.8-0.54-2.8-0.7s-1.78-0.26-2.34-0.29c-0.77,0.64-1.42,1.43-1.94,2.36s-0.78,1.83-0.78,2.71c0,0.75,0.17,1.42,0.51,2
			c0.34,0.58,0.76,1.03,1.26,1.37c0.56,0.38,1.23,0.66,2.02,0.85s1.55,0.28,2.27,0.28c0.77,0,1.55-0.1,2.34-0.29
			s1.45-0.48,2.01-0.87c0.62-0.43,1.08-0.9,1.38-1.4C306.42,537.5,306.57,536.92,306.57,536.24z"/>
		<path class="st3" d="M321.06,542.01h-2.37c0.01-0.42,0.02-1.54,0.04-3.37c0.02-1.83,0.03-3.11,0.03-3.82c0-0.75,0-1.72-0.01-2.93
			c0-1.21-0.01-1.94-0.02-2.19l-0.03-0.01c-0.42,0.2-1.22,0.56-2.4,1.09c-1.17,0.53-2.44,1.1-3.8,1.73l-0.8-1.42
			c0.74-0.38,2.03-1.04,3.89-1.98c1.85-0.94,3.03-1.54,3.52-1.79l1.91,0.95c-0.04,1.42-0.06,2.75-0.06,3.99s0,2.13,0,2.65
			c0,0.93,0.01,2.24,0.04,3.93C321.03,540.52,321.05,541.58,321.06,542.01z"/>
		<path class="st3" d="M346.05,534.88c0,1.16-0.24,2.2-0.73,3.13c-0.49,0.93-1.2,1.73-2.13,2.41c-0.99,0.72-2.02,1.23-3.08,1.54
			c-1.06,0.31-2.35,0.47-3.86,0.47c-1.41,0-2.67-0.17-3.78-0.5c-1.11-0.33-2.13-0.84-3.06-1.51c-0.94-0.69-1.66-1.51-2.15-2.46
			c-0.49-0.95-0.73-1.99-0.73-3.11c0-1.12,0.21-2.1,0.62-2.93c0.42-0.83,1.09-1.63,2.01-2.41c0.89-0.75,1.94-1.3,3.17-1.66
			c1.22-0.36,2.55-0.54,3.97-0.54c1.45,0,2.77,0.18,3.94,0.54c1.17,0.36,2.2,0.88,3.09,1.57c0.91,0.7,1.59,1.51,2.04,2.42
			C345.82,532.76,346.05,533.77,346.05,534.88z M343.56,535.05c0-0.94-0.19-1.78-0.57-2.5c-0.38-0.72-0.96-1.37-1.76-1.93
			c-0.65-0.46-1.38-0.81-2.19-1.04c-0.81-0.23-1.72-0.35-2.73-0.35c-1.02,0-1.92,0.12-2.71,0.35c-0.79,0.23-1.53,0.58-2.22,1.04
			c-0.75,0.5-1.33,1.12-1.71,1.87c-0.39,0.75-0.58,1.54-0.58,2.39c0,0.97,0.21,1.82,0.64,2.56s1.02,1.36,1.8,1.89
			c0.66,0.45,1.39,0.78,2.18,0.98c0.79,0.2,1.64,0.3,2.55,0.3c0.93,0,1.84-0.12,2.71-0.35c0.87-0.24,1.58-0.54,2.14-0.92
			c0.87-0.58,1.5-1.21,1.88-1.86C343.36,536.8,343.56,536,343.56,535.05z"/>
		<path class="st3" d="M368.75,534.88c0,1.16-0.24,2.2-0.73,3.13c-0.49,0.93-1.2,1.73-2.13,2.41c-0.99,0.72-2.02,1.23-3.08,1.54
			c-1.06,0.31-2.35,0.47-3.86,0.47c-1.41,0-2.67-0.17-3.78-0.5s-2.13-0.84-3.06-1.51c-0.94-0.69-1.66-1.51-2.15-2.46
			c-0.49-0.95-0.73-1.99-0.73-3.11c0-1.12,0.21-2.1,0.62-2.93c0.42-0.83,1.09-1.63,2.01-2.41c0.89-0.75,1.94-1.3,3.16-1.66
			c1.22-0.36,2.55-0.54,3.97-0.54c1.45,0,2.77,0.18,3.94,0.54c1.17,0.36,2.2,0.88,3.09,1.57c0.91,0.7,1.59,1.51,2.04,2.42
			C368.52,532.76,368.75,533.77,368.75,534.88z M366.26,535.05c0-0.94-0.19-1.78-0.57-2.5c-0.38-0.72-0.96-1.37-1.76-1.93
			c-0.65-0.46-1.38-0.81-2.2-1.04c-0.81-0.23-1.72-0.35-2.73-0.35c-1.02,0-1.92,0.12-2.71,0.35c-0.79,0.23-1.53,0.58-2.22,1.04
			c-0.76,0.5-1.33,1.12-1.71,1.87c-0.39,0.75-0.58,1.54-0.58,2.39c0,0.97,0.21,1.82,0.64,2.56s1.02,1.36,1.8,1.89
			c0.66,0.45,1.39,0.78,2.18,0.98c0.79,0.2,1.64,0.3,2.55,0.3c0.93,0,1.84-0.12,2.7-0.35c0.87-0.24,1.58-0.54,2.14-0.92
			c0.87-0.58,1.5-1.21,1.88-1.86S366.26,536,366.26,535.05z"/>
		<path class="st3" d="M415.58,542.01h-2.44c0-0.28,0.01-1,0.02-2.15c0.01-1.15,0.02-2.13,0.02-2.95c0-0.92-0.01-1.74-0.02-2.49
			c-0.01-0.74-0.02-1.29-0.02-1.65c0-1.06-0.31-1.89-0.93-2.5c-0.62-0.61-1.58-0.91-2.86-0.91c-0.91,0-1.91,0.16-3.01,0.47
			s-2.34,0.76-3.73,1.36c0,0.26,0,0.83-0.01,1.71s-0.01,1.7-0.01,2.46c0,1.29,0.01,2.67,0.04,4.14c0.02,1.46,0.04,2.3,0.04,2.51
			h-2.44c0-0.21,0.01-0.96,0.02-2.26c0.01-1.3,0.02-2.76,0.02-4.38c0-1.89-0.01-3.35-0.02-4.38c-0.01-1.03-0.02-2.14-0.02-3.31h2.38
			l-0.01,1.61h0.01c1.19-0.55,2.46-1.01,3.81-1.4c1.35-0.39,2.61-0.58,3.78-0.58c1.76,0,3.09,0.41,4.01,1.23s1.37,1.93,1.37,3.33
			c0,0.75-0.01,1.55-0.02,2.42c-0.01,0.87-0.02,1.66-0.02,2.38c0,0.71,0.01,1.72,0.02,3.03
			C415.58,541.02,415.58,541.79,415.58,542.01z"/>
		<path class="st3" d="M434.33,533.97c0,1.75-0.01,3.49-0.02,5.23c-0.01,1.74-0.02,2.69-0.02,2.84c-0.19,0.02-0.84,0.06-1.95,0.11
			s-2.15,0.08-3.14,0.08c-1.43,0-2.65-0.06-3.67-0.19c-1.02-0.13-1.91-0.32-2.64-0.59c-1.07-0.39-1.88-0.9-2.44-1.53
			c-0.56-0.63-0.83-1.33-0.83-2.11c0-0.91,0.34-1.72,1.02-2.44s1.73-1.27,3.16-1.64c1-0.26,2.23-0.49,3.7-0.67
			c1.46-0.18,2.94-0.32,4.43-0.4c-0.09-0.71-0.35-1.28-0.8-1.72c-0.45-0.44-1.07-0.79-1.87-1.04c-0.59-0.19-1.24-0.32-1.92-0.39
			c-0.69-0.07-1.48-0.11-2.38-0.11c-0.75,0-1.35,0.01-1.79,0.03c-0.44,0.02-0.86,0.04-1.26,0.07l0.28-1.91
			c0.24-0.01,0.62-0.03,1.15-0.07c0.53-0.04,1.24-0.06,2.12-0.06c1.55,0,2.88,0.12,3.99,0.37c1.11,0.25,2.02,0.61,2.73,1.09
			c0.69,0.46,1.22,1.09,1.6,1.89C434.14,531.62,434.33,532.67,434.33,533.97z M431.95,537.2c0-0.46,0-0.94-0.01-1.44
			c-0.01-0.5-0.01-0.9-0.01-1.22c-0.83,0.02-1.94,0.09-3.34,0.21c-1.39,0.12-2.58,0.3-3.55,0.52c-1.14,0.26-1.91,0.62-2.31,1.05
			c-0.4,0.44-0.6,0.89-0.6,1.35c0,0.57,0.23,1.05,0.68,1.44c0.45,0.4,1.15,0.71,2.09,0.95c0.54,0.13,1.19,0.22,1.97,0.28
			c0.77,0.05,1.71,0.08,2.8,0.08c0.25,0,0.55,0,0.9-0.01c0.36-0.01,0.81-0.03,1.36-0.07C431.94,539.14,431.95,538.09,431.95,537.2z"
			/>
		<path class="st3" d="M466.62,542.01h-2.44c0-0.1,0.01-0.58,0.02-1.43c0.01-0.85,0.02-2.08,0.02-3.68c0-1.25,0-2.21-0.01-2.9
			c-0.01-0.68-0.02-1.16-0.03-1.44c-0.04-1.05-0.32-1.84-0.85-2.39c-0.53-0.54-1.49-0.81-2.87-0.81c-0.97,0-1.96,0.15-2.95,0.44
			c-1,0.29-2.04,0.67-3.12,1.13c0.01,0.06,0.02,0.21,0.04,0.47c0.01,0.25,0.02,0.45,0.02,0.59c0,0.71-0.01,1.36-0.02,1.96
			c-0.01,0.6-0.02,1.53-0.02,2.78c0,0.95,0.01,2.04,0.02,3.25c0.01,1.21,0.02,1.89,0.02,2.02H452c0-0.16,0.01-0.78,0.02-1.86
			c0.01-1.08,0.02-2.16,0.02-3.26c0-0.87,0-1.74-0.01-2.61c-0.01-0.87-0.02-1.45-0.03-1.72c-0.02-0.64-0.12-1.18-0.3-1.61
			c-0.18-0.43-0.46-0.78-0.84-1.05c-0.27-0.19-0.62-0.33-1.05-0.41s-0.93-0.13-1.53-0.13c-0.98,0-2.02,0.19-3.11,0.56
			c-1.09,0.37-2.07,0.75-2.94,1.13c0,0.26,0,0.96-0.01,2.08c0,1.12-0.01,2.03-0.01,2.71c0,1.15,0.01,2.42,0.02,3.79
			c0.01,1.38,0.02,2.17,0.02,2.38h-2.44c0-0.16,0.01-0.75,0.02-1.77c0.01-1.02,0.02-2.53,0.02-4.53c0-1.05-0.01-2.31-0.02-3.79
			c-0.01-1.48-0.02-2.89-0.02-4.24h2.44l-0.03,1.37l0.04,0.03c0.91-0.4,1.97-0.79,3.19-1.18c1.22-0.39,2.35-0.59,3.39-0.59
			c1.14,0,2.11,0.16,2.91,0.48c0.8,0.32,1.43,0.82,1.89,1.49h0.04c1.28-0.58,2.54-1.06,3.77-1.42c1.23-0.36,2.42-0.54,3.57-0.54
			c1.73,0,3.09,0.4,4.08,1.21c1,0.81,1.49,1.97,1.49,3.48c0,1.14-0.01,2.06-0.02,2.75c-0.01,0.69-0.02,1.36-0.02,1.99
			c0,0.88,0.01,1.95,0.02,3.22C466.61,541.24,466.62,541.92,466.62,542.01z"/>
		<path class="st3" d="M486.99,534.56h-14.03c0.04,0.96,0.34,1.84,0.92,2.63s1.43,1.43,2.55,1.93c0.73,0.32,1.59,0.57,2.59,0.75
			c1,0.18,2.1,0.27,3.3,0.27c1,0,1.72-0.01,2.16-0.02c0.44-0.01,0.77-0.04,1-0.08l-0.35,2c-0.15,0.02-0.43,0.04-0.85,0.05
			c-0.42,0.01-1.11,0.02-2.08,0.02c-1.9,0-3.57-0.17-5.02-0.52s-2.68-0.89-3.7-1.63c-0.95-0.69-1.67-1.5-2.17-2.44
			s-0.74-1.91-0.74-2.91c0-1.07,0.21-2.04,0.62-2.91c0.41-0.87,1.05-1.68,1.93-2.42c0.72-0.6,1.6-1.08,2.66-1.44
			c1.06-0.35,2.21-0.53,3.47-0.53c1.2,0,2.25,0.17,3.16,0.5c0.91,0.33,1.65,0.74,2.24,1.21c0.74,0.59,1.31,1.39,1.73,2.37
			S486.99,533.44,486.99,534.56z M484.49,532.82c-0.21-1.06-0.77-1.93-1.7-2.63c-0.93-0.69-2.15-1.04-3.67-1.04
			c-1.49,0-2.74,0.31-3.75,0.92c-1.01,0.61-1.72,1.53-2.14,2.75H484.49z"/>
		<path class="st3" d="M507.07,541.98c-0.21,0-1.27,0-3.17-0.01c-1.91,0-3.7-0.01-5.37-0.01c-1.59,0-3.27,0.01-5.06,0.04
			s-2.84,0.02-3.16-0.02l-0.61-1.68c1.51-0.58,2.89-1.11,4.13-1.62c1.25-0.5,2.22-0.96,2.92-1.37c1.4-0.77,2.4-1.49,3.01-2.15
			c0.61-0.66,0.91-1.37,0.91-2.15c0-0.66-0.22-1.24-0.66-1.75c-0.44-0.51-1.01-0.87-1.72-1.1c-0.74-0.24-1.57-0.42-2.49-0.54
			c-0.92-0.12-1.82-0.18-2.71-0.18c-0.39,0-0.78,0-1.19,0.01c-0.41,0-0.77,0.02-1.1,0.05l0.27-1.94c0.25-0.02,0.6-0.03,1.07-0.04
			c0.47-0.01,0.84-0.01,1.13-0.01c1.4,0,2.6,0.08,3.6,0.23c1.01,0.16,1.93,0.4,2.78,0.73c1.14,0.42,2.02,1,2.63,1.73
			c0.61,0.73,0.91,1.6,0.91,2.61c0,0.75-0.25,1.5-0.76,2.27s-1.16,1.44-1.98,2.02c-0.72,0.55-1.82,1.16-3.32,1.84
			s-2.49,1.1-2.98,1.26l0.01,0.03c0.89-0.04,1.7-0.07,2.44-0.09c0.74-0.02,1.4-0.03,2-0.03c1.32,0,2.96-0.01,4.93-0.04
			c1.96-0.03,3.14-0.04,3.54-0.04V541.98z"/>
	</g>
</g>
<g>
	<g>
		<path class="st3" d="M133.5,574.48c0,0.94-0.33,1.81-0.98,2.59c-0.65,0.78-1.66,1.42-3.03,1.91c-1.01,0.36-2.24,0.62-3.68,0.79
			s-2.99,0.26-4.63,0.27c-0.31,0-0.6,0-0.88-0.01s-0.5-0.01-0.69-0.01l-0.35-1.83c0.17,0,0.44,0,0.81,0.01s0.74,0,1.12-0.01
			c1.2-0.03,2.34-0.09,3.42-0.18c1.08-0.09,1.99-0.22,2.73-0.4c1.22-0.3,2.13-0.69,2.74-1.17c0.61-0.48,0.91-1.09,0.91-1.85
			c0-0.66-0.29-1.22-0.86-1.67c-0.57-0.45-1.47-0.81-2.68-1.06c-0.47-0.1-0.96-0.18-1.46-0.23s-1.17-0.08-2-0.08
			c-0.25,0-0.51,0-0.8,0.01c-0.29,0.01-0.49,0.01-0.6,0.01l-0.31-1.77c2.5-0.1,4.34-0.47,5.52-1.11c1.17-0.64,1.76-1.42,1.76-2.34
			c0-0.63-0.21-1.16-0.64-1.59s-1.08-0.77-1.97-1.05c-0.48-0.15-1.12-0.27-1.9-0.35c-0.79-0.08-1.61-0.13-2.47-0.15
			c-0.33-0.01-0.64-0.01-0.92-0.01c-0.28,0-0.54,0.02-0.76,0.04l0.48-1.97c0.11,0,0.26,0,0.44,0s0.36,0,0.54,0
			c1.67,0.02,3.02,0.1,4.04,0.25c1.02,0.15,1.89,0.35,2.6,0.62c1.04,0.39,1.84,0.9,2.4,1.54c0.56,0.64,0.84,1.38,0.84,2.22
			c0,0.85-0.32,1.65-0.96,2.41c-0.64,0.76-1.76,1.4-3.36,1.93v0.03c1.94,0.26,3.35,0.72,4.25,1.41S133.5,573.3,133.5,574.48z"/>
		<path class="st3" d="M148.62,563.19c-1,0.19-2.19,0.47-3.58,0.86c-1.39,0.38-2.9,0.88-4.55,1.49c0,0.23,0,0.74-0.01,1.54
			c0,0.8-0.01,1.58-0.01,2.34c0,0.66,0.01,1.83,0.04,3.52c0.02,1.68,0.04,2.64,0.04,2.87h-2.44c0-0.19,0.01-0.83,0.02-1.93
			c0.01-1.09,0.02-2.54,0.02-4.33c0-0.69-0.01-1.88-0.02-3.58c-0.01-1.7-0.02-3.2-0.02-4.49h2.38l-0.01,2.12l0.01,0.01
			c1.3-0.55,2.7-1.04,4.18-1.49c1.48-0.44,2.61-0.72,3.37-0.82L148.62,563.19z"/>
		<path class="st3" d="M166.47,576c-0.12,0-0.35,0-0.69,0c-0.33,0-0.67,0-1,0c-1.84,0-3.62-0.1-5.34-0.29s-3.07-0.47-4.05-0.84
			c-1.69-0.58-2.95-1.35-3.78-2.3c-0.83-0.95-1.25-2.09-1.25-3.43c0-1.4,0.44-2.64,1.33-3.73c0.89-1.09,2.37-1.98,4.45-2.68
			c1.21-0.41,2.49-0.7,3.83-0.88c1.35-0.18,2.72-0.28,4.11-0.28l-0.03-6.51h2.41c0,0.17-0.01,1.53-0.03,4.08s-0.03,5.03-0.03,7.43
			c0,1.91,0.01,3.59,0.03,5.04C166.46,573.05,166.47,574.52,166.47,576z M164.09,566.15c0-0.51,0-0.96,0-1.34s0-0.82,0-1.29
			c-1.19,0-2.38,0.07-3.56,0.2c-1.19,0.13-2.3,0.36-3.33,0.69c-1.38,0.42-2.44,1.04-3.17,1.85c-0.74,0.81-1.1,1.74-1.1,2.79
			c0,0.89,0.31,1.67,0.93,2.35s1.56,1.26,2.82,1.73c0.89,0.32,1.91,0.57,3.07,0.74c1.16,0.17,2.42,0.26,3.77,0.26
			c0.1,0,0.2,0,0.28,0c0.08,0,0.16,0,0.25,0c0-0.07,0.01-0.78,0.03-2.14C164.08,570.64,164.09,568.69,164.09,566.15z"/>
		<path class="st3" d="M265.58,568.67c0,1.16-0.24,2.2-0.73,3.13c-0.49,0.93-1.2,1.73-2.13,2.41c-0.99,0.72-2.02,1.23-3.08,1.54
			c-1.06,0.31-2.35,0.47-3.86,0.47c-1.41,0-2.67-0.17-3.78-0.5s-2.13-0.84-3.06-1.51c-0.94-0.69-1.66-1.51-2.15-2.46
			c-0.49-0.95-0.73-1.99-0.73-3.11s0.21-2.1,0.62-2.93c0.42-0.83,1.09-1.63,2.01-2.41c0.89-0.75,1.94-1.3,3.16-1.66
			c1.22-0.36,2.55-0.54,3.97-0.54c1.45,0,2.77,0.18,3.94,0.54c1.17,0.36,2.2,0.88,3.09,1.57c0.91,0.7,1.59,1.51,2.04,2.42
			C265.35,566.56,265.58,567.57,265.58,568.67z M263.09,568.84c0-0.94-0.19-1.78-0.57-2.5c-0.38-0.72-0.96-1.37-1.76-1.93
			c-0.65-0.46-1.38-0.81-2.19-1.04s-1.72-0.35-2.73-0.35c-1.02,0-1.92,0.12-2.71,0.35c-0.79,0.23-1.53,0.58-2.22,1.04
			c-0.76,0.5-1.33,1.12-1.71,1.87c-0.39,0.75-0.58,1.54-0.58,2.39c0,0.97,0.21,1.82,0.64,2.56s1.02,1.36,1.8,1.89
			c0.66,0.45,1.39,0.78,2.18,0.98c0.79,0.2,1.64,0.3,2.55,0.3c0.93,0,1.84-0.12,2.7-0.35c0.87-0.24,1.58-0.54,2.14-0.92
			c0.87-0.58,1.5-1.21,1.88-1.86S263.09,569.79,263.09,568.84z"/>
		<path class="st3" d="M288.28,568.67c0,1.16-0.24,2.2-0.73,3.13c-0.49,0.93-1.2,1.73-2.13,2.41c-0.99,0.72-2.02,1.23-3.08,1.54
			c-1.06,0.31-2.35,0.47-3.86,0.47c-1.41,0-2.67-0.17-3.78-0.5s-2.13-0.84-3.06-1.51c-0.94-0.69-1.66-1.51-2.15-2.46
			c-0.49-0.95-0.73-1.99-0.73-3.11s0.21-2.1,0.62-2.93c0.42-0.83,1.09-1.63,2.01-2.41c0.89-0.75,1.94-1.3,3.16-1.66
			c1.22-0.36,2.55-0.54,3.97-0.54c1.45,0,2.77,0.18,3.94,0.54c1.17,0.36,2.2,0.88,3.09,1.57c0.91,0.7,1.59,1.51,2.04,2.42
			C288.05,566.56,288.28,567.57,288.28,568.67z M285.78,568.84c0-0.94-0.19-1.78-0.57-2.5c-0.38-0.72-0.96-1.37-1.76-1.93
			c-0.65-0.46-1.38-0.81-2.19-1.04s-1.72-0.35-2.73-0.35c-1.02,0-1.92,0.12-2.71,0.35c-0.79,0.23-1.53,0.58-2.22,1.04
			c-0.76,0.5-1.33,1.12-1.71,1.87c-0.39,0.75-0.58,1.54-0.58,2.39c0,0.97,0.21,1.82,0.64,2.56s1.02,1.36,1.8,1.89
			c0.66,0.45,1.39,0.78,2.18,0.98c0.79,0.2,1.64,0.3,2.55,0.3c0.93,0,1.84-0.12,2.7-0.35c0.87-0.24,1.58-0.54,2.14-0.92
			c0.87-0.58,1.5-1.21,1.88-1.86S285.78,569.79,285.78,568.84z"/>
		<path class="st3" d="M305.24,563.71c-0.26,0-1.83,0-4.69,0c-2.86,0-4.83,0-5.88,0v5.22c1.27,0.06,2.48,0.17,3.62,0.34
			c1.14,0.17,2.07,0.39,2.81,0.65c1.22,0.43,2.14,1.02,2.75,1.77c0.62,0.75,0.93,1.61,0.93,2.61c0,0.98-0.33,1.87-1,2.67
			c-0.67,0.8-1.67,1.46-3.02,1.98c-0.93,0.36-2.07,0.62-3.41,0.79c-1.34,0.17-2.76,0.27-4.28,0.3c-0.25,0-0.67,0-1.27,0l-0.33-1.96
			c0.48,0,0.82,0,1.02,0c1.19-0.01,2.34-0.06,3.45-0.14c1.11-0.09,2.1-0.25,2.97-0.48c1.09-0.29,1.91-0.69,2.48-1.2
			s0.85-1.12,0.85-1.85c0-0.68-0.28-1.26-0.83-1.76c-0.55-0.49-1.39-0.89-2.5-1.2c-0.59-0.16-1.37-0.29-2.35-0.4
			c-0.98-0.1-2.01-0.17-3.07-0.18c-0.21,0-0.4,0-0.57,0s-0.33,0-0.48,0c0-0.21,0-0.81,0.01-1.81c0.01-1,0.01-1.95,0.01-2.87
			c0-0.88,0-1.78-0.01-2.7c-0.01-0.93-0.01-1.52-0.01-1.78c0.28,0,1.1,0,2.46,0.01c1.35,0,2.61,0.01,3.77,0.01
			c1.27,0,2.63,0,4.1-0.01c1.47,0,2.3-0.01,2.49-0.01V563.71z"/>
		<path class="st3" d="M325.02,567.37c0,1.04-0.25,2.06-0.76,3.05s-1.39,2.06-2.67,3.21c-0.83,0.75-3.87,3.18-9.11,7.31l-1.66-1.56
			c4.16-3.01,6.45-4.68,6.89-5.02v-0.01c-1.14-0.11-2.33-0.33-3.57-0.66c-1.24-0.33-2.26-0.71-3.07-1.14
			c-1.06-0.57-1.92-1.28-2.58-2.14c-0.66-0.86-0.99-1.8-0.99-2.83c0-0.91,0.18-1.71,0.55-2.4c0.37-0.69,0.99-1.38,1.85-2.06
			c0.85-0.67,1.82-1.17,2.92-1.5c1.1-0.33,2.26-0.5,3.5-0.5c1.31,0,2.49,0.15,3.55,0.45c1.05,0.3,1.99,0.76,2.83,1.38
			c0.77,0.58,1.35,1.23,1.74,1.97C324.83,565.64,325.02,566.46,325.02,567.37z M322.5,567.54c0-0.65-0.15-1.26-0.45-1.83
			c-0.3-0.57-0.78-1.09-1.43-1.55c-0.57-0.41-1.22-0.71-1.96-0.9s-1.54-0.29-2.39-0.29c-1.01,0-1.89,0.12-2.64,0.38
			c-0.75,0.25-1.35,0.54-1.81,0.87c-0.58,0.42-1.01,0.89-1.32,1.42c-0.3,0.53-0.45,1.13-0.45,1.79c0,0.89,0.36,1.69,1.08,2.41
			c0.72,0.72,1.72,1.31,3.01,1.77c0.66,0.24,1.47,0.46,2.44,0.66s1.95,0.33,2.96,0.39c1.08-0.98,1.84-1.84,2.29-2.58
			S322.5,568.48,322.5,567.54z"/>
		<path class="st3" d="M342.21,563.71c-0.26,0-1.83,0-4.69,0s-4.83,0-5.88,0v5.22c1.27,0.06,2.48,0.17,3.62,0.34
			s2.07,0.39,2.81,0.65c1.22,0.43,2.14,1.02,2.75,1.77c0.62,0.75,0.93,1.61,0.93,2.61c0,0.98-0.33,1.87-1,2.67
			c-0.67,0.8-1.67,1.46-3.02,1.98c-0.93,0.36-2.07,0.62-3.41,0.79s-2.76,0.27-4.28,0.3c-0.25,0-0.67,0-1.27,0l-0.33-1.96
			c0.48,0,0.82,0,1.02,0c1.19-0.01,2.34-0.06,3.45-0.14c1.11-0.09,2.1-0.25,2.97-0.48c1.08-0.29,1.91-0.69,2.48-1.2
			s0.85-1.12,0.85-1.85c0-0.68-0.28-1.26-0.83-1.76c-0.55-0.49-1.39-0.89-2.5-1.2c-0.59-0.16-1.37-0.29-2.35-0.4
			c-0.98-0.1-2.01-0.17-3.07-0.18c-0.21,0-0.4,0-0.57,0s-0.33,0-0.48,0c0-0.21,0-0.81,0.01-1.81c0.01-1,0.01-1.95,0.01-2.87
			c0-0.88,0-1.78-0.01-2.7c-0.01-0.93-0.01-1.52-0.01-1.78c0.28,0,1.1,0,2.46,0.01s2.61,0.01,3.77,0.01c1.27,0,2.63,0,4.1-0.01
			s2.3-0.01,2.49-0.01V563.71z"/>
		<path class="st3" d="M363.91,568.67c0,1.16-0.24,2.2-0.73,3.13c-0.49,0.93-1.2,1.73-2.13,2.41c-0.99,0.72-2.02,1.23-3.08,1.54
			c-1.06,0.31-2.35,0.47-3.86,0.47c-1.41,0-2.67-0.17-3.78-0.5c-1.11-0.33-2.13-0.84-3.06-1.51c-0.94-0.69-1.66-1.51-2.15-2.46
			c-0.49-0.95-0.73-1.99-0.73-3.11s0.21-2.1,0.62-2.93c0.42-0.83,1.08-1.63,2.01-2.41c0.89-0.75,1.94-1.3,3.16-1.66
			c1.22-0.36,2.55-0.54,3.97-0.54c1.45,0,2.77,0.18,3.94,0.54c1.17,0.36,2.2,0.88,3.09,1.57c0.91,0.7,1.59,1.51,2.04,2.42
			C363.68,566.56,363.91,567.57,363.91,568.67z M361.41,568.84c0-0.94-0.19-1.78-0.57-2.5c-0.38-0.72-0.96-1.37-1.76-1.93
			c-0.65-0.46-1.38-0.81-2.2-1.04c-0.81-0.23-1.72-0.35-2.73-0.35c-1.02,0-1.92,0.12-2.71,0.35c-0.79,0.23-1.53,0.58-2.22,1.04
			c-0.76,0.5-1.33,1.12-1.71,1.87c-0.39,0.75-0.58,1.54-0.58,2.39c0,0.97,0.21,1.82,0.64,2.56c0.42,0.73,1.02,1.36,1.8,1.89
			c0.66,0.45,1.39,0.78,2.18,0.98c0.79,0.2,1.64,0.3,2.55,0.3c0.93,0,1.84-0.12,2.71-0.35c0.87-0.24,1.58-0.54,2.14-0.92
			c0.87-0.58,1.5-1.21,1.88-1.86S361.41,569.79,361.41,568.84z"/>
		<path class="st3" d="M415.58,575.81h-2.44c0-0.28,0.01-1,0.02-2.15c0.01-1.15,0.02-2.13,0.02-2.95c0-0.92-0.01-1.74-0.02-2.49
			c-0.01-0.74-0.02-1.29-0.02-1.65c0-1.06-0.31-1.89-0.93-2.5c-0.62-0.61-1.58-0.91-2.86-0.91c-0.91,0-1.91,0.16-3.01,0.47
			s-2.34,0.76-3.73,1.36c0,0.26,0,0.84-0.01,1.71s-0.01,1.7-0.01,2.46c0,1.29,0.01,2.67,0.04,4.14c0.02,1.46,0.04,2.3,0.04,2.51
			h-2.44c0-0.21,0.01-0.96,0.02-2.26c0.01-1.3,0.02-2.76,0.02-4.38c0-1.89-0.01-3.35-0.02-4.38c-0.01-1.03-0.02-2.14-0.02-3.31h2.38
			l-0.01,1.61h0.01c1.19-0.55,2.46-1.01,3.81-1.4c1.35-0.39,2.61-0.58,3.78-0.58c1.76,0,3.09,0.41,4.01,1.23s1.37,1.93,1.37,3.33
			c0,0.75-0.01,1.55-0.02,2.42c-0.01,0.87-0.02,1.66-0.02,2.38c0,0.71,0.01,1.72,0.02,3.03
			C415.58,574.81,415.58,575.58,415.58,575.81z"/>
		<path class="st3" d="M434.33,567.76c0,1.75-0.01,3.49-0.02,5.23c-0.01,1.74-0.02,2.69-0.02,2.84c-0.19,0.02-0.84,0.06-1.95,0.11
			s-2.15,0.08-3.14,0.08c-1.43,0-2.65-0.06-3.67-0.19c-1.02-0.13-1.91-0.32-2.64-0.59c-1.07-0.39-1.88-0.9-2.44-1.53
			c-0.56-0.63-0.83-1.33-0.83-2.11c0-0.91,0.34-1.72,1.02-2.44c0.68-0.72,1.73-1.26,3.16-1.64c1-0.26,2.23-0.49,3.7-0.67
			c1.46-0.18,2.94-0.32,4.43-0.4c-0.09-0.71-0.35-1.28-0.8-1.72c-0.45-0.44-1.07-0.79-1.87-1.04c-0.59-0.19-1.24-0.32-1.92-0.39
			c-0.69-0.07-1.48-0.11-2.38-0.11c-0.75,0-1.35,0.01-1.79,0.03c-0.44,0.02-0.86,0.04-1.26,0.07l0.28-1.91
			c0.24-0.01,0.62-0.03,1.15-0.07c0.53-0.04,1.24-0.06,2.12-0.06c1.55,0,2.88,0.12,3.99,0.37c1.11,0.25,2.02,0.61,2.73,1.09
			c0.69,0.46,1.22,1.09,1.6,1.89S434.33,566.46,434.33,567.76z M431.95,570.99c0-0.46,0-0.94-0.01-1.44
			c-0.01-0.5-0.01-0.9-0.01-1.22c-0.83,0.02-1.94,0.09-3.34,0.21c-1.39,0.12-2.58,0.3-3.55,0.52c-1.14,0.26-1.91,0.62-2.31,1.05
			c-0.4,0.44-0.6,0.89-0.6,1.35c0,0.57,0.23,1.05,0.68,1.44c0.45,0.4,1.15,0.71,2.09,0.95c0.54,0.13,1.19,0.22,1.97,0.28
			c0.77,0.05,1.71,0.08,2.8,0.08c0.25,0,0.55,0,0.9-0.01c0.36-0.01,0.81-0.03,1.36-0.07C431.94,572.94,431.95,571.89,431.95,570.99z
			"/>
		<path class="st3" d="M466.62,575.81h-2.44c0-0.1,0.01-0.58,0.02-1.43c0.01-0.85,0.02-2.08,0.02-3.68c0-1.25,0-2.21-0.01-2.9
			c-0.01-0.68-0.02-1.16-0.03-1.44c-0.04-1.05-0.32-1.84-0.85-2.39c-0.53-0.54-1.49-0.81-2.87-0.81c-0.97,0-1.96,0.15-2.95,0.44
			c-1,0.29-2.04,0.67-3.12,1.13c0.01,0.06,0.02,0.21,0.04,0.47c0.01,0.25,0.02,0.45,0.02,0.59c0,0.71-0.01,1.36-0.02,1.96
			c-0.01,0.6-0.02,1.53-0.02,2.78c0,0.95,0.01,2.04,0.02,3.25c0.01,1.21,0.02,1.89,0.02,2.02H452c0-0.16,0.01-0.78,0.02-1.86
			c0.01-1.08,0.02-2.16,0.02-3.26c0-0.87,0-1.74-0.01-2.61c-0.01-0.87-0.02-1.45-0.03-1.72c-0.02-0.64-0.12-1.18-0.3-1.61
			c-0.18-0.43-0.46-0.78-0.84-1.05c-0.27-0.19-0.62-0.33-1.05-0.41s-0.93-0.13-1.53-0.13c-0.98,0-2.02,0.19-3.11,0.56
			c-1.09,0.37-2.07,0.75-2.94,1.13c0,0.26,0,0.96-0.01,2.08c0,1.12-0.01,2.02-0.01,2.7c0,1.15,0.01,2.42,0.02,3.79
			c0.01,1.38,0.02,2.17,0.02,2.38h-2.44c0-0.16,0.01-0.75,0.02-1.77c0.01-1.02,0.02-2.53,0.02-4.53c0-1.05-0.01-2.31-0.02-3.79
			c-0.01-1.48-0.02-2.89-0.02-4.24h2.44l-0.03,1.37l0.04,0.03c0.91-0.4,1.97-0.79,3.19-1.18s2.35-0.59,3.39-0.59
			c1.14,0,2.11,0.16,2.91,0.48c0.8,0.32,1.43,0.82,1.89,1.49h0.04c1.28-0.59,2.54-1.06,3.77-1.42c1.23-0.36,2.42-0.54,3.57-0.54
			c1.73,0,3.09,0.4,4.08,1.21c1,0.81,1.49,1.97,1.49,3.48c0,1.14-0.01,2.06-0.02,2.75c-0.01,0.69-0.02,1.36-0.02,1.99
			c0,0.88,0.01,1.95,0.02,3.22C466.61,575.03,466.62,575.71,466.62,575.81z"/>
		<path class="st3" d="M486.99,568.36h-14.03c0.04,0.96,0.34,1.84,0.92,2.63s1.43,1.43,2.55,1.93c0.73,0.32,1.59,0.57,2.59,0.75
			c1,0.18,2.1,0.27,3.3,0.27c1,0,1.72-0.01,2.16-0.02c0.44-0.01,0.77-0.04,1-0.08l-0.35,2c-0.15,0.02-0.43,0.04-0.85,0.05
			c-0.42,0.01-1.11,0.02-2.08,0.02c-1.9,0-3.57-0.17-5.02-0.52s-2.68-0.89-3.7-1.63c-0.95-0.69-1.67-1.5-2.17-2.44
			s-0.74-1.91-0.74-2.91c0-1.07,0.21-2.04,0.62-2.91c0.41-0.87,1.05-1.68,1.93-2.41c0.72-0.6,1.6-1.08,2.66-1.44
			c1.06-0.35,2.21-0.53,3.47-0.53c1.2,0,2.25,0.17,3.16,0.5s1.65,0.74,2.24,1.21c0.74,0.59,1.31,1.38,1.73,2.37
			C486.78,566.18,486.99,567.24,486.99,568.36z M484.49,566.62c-0.21-1.06-0.77-1.93-1.7-2.63c-0.93-0.69-2.15-1.04-3.67-1.04
			c-1.49,0-2.74,0.31-3.75,0.92c-1.01,0.61-1.72,1.53-2.14,2.75H484.49z"/>
		<path class="st3" d="M503.19,574.48c0,0.94-0.33,1.81-0.98,2.59c-0.65,0.78-1.66,1.42-3.03,1.91c-1.01,0.36-2.24,0.62-3.68,0.79
			s-2.99,0.26-4.63,0.27c-0.31,0-0.6,0-0.88-0.01c-0.27-0.01-0.5-0.01-0.69-0.01l-0.35-1.83c0.17,0,0.44,0,0.81,0.01
			s0.74,0,1.12-0.01c1.2-0.03,2.34-0.09,3.42-0.18s1.99-0.22,2.73-0.4c1.22-0.3,2.13-0.69,2.74-1.17c0.61-0.48,0.91-1.09,0.91-1.85
			c0-0.66-0.29-1.22-0.86-1.67s-1.46-0.81-2.68-1.06c-0.47-0.1-0.96-0.18-1.46-0.23s-1.17-0.08-2-0.08c-0.25,0-0.51,0-0.8,0.01
			s-0.49,0.01-0.6,0.01l-0.31-1.77c2.5-0.1,4.34-0.47,5.52-1.11c1.17-0.64,1.76-1.42,1.76-2.34c0-0.63-0.21-1.16-0.64-1.59
			c-0.42-0.42-1.08-0.77-1.97-1.05c-0.48-0.15-1.12-0.27-1.9-0.35s-1.61-0.13-2.47-0.15c-0.33-0.01-0.64-0.01-0.92-0.01
			c-0.28,0-0.54,0.02-0.76,0.04l0.48-1.97c0.11,0,0.26,0,0.44,0c0.18,0,0.36,0,0.54,0c1.67,0.02,3.02,0.1,4.04,0.25
			s1.89,0.35,2.6,0.62c1.04,0.39,1.84,0.9,2.4,1.54c0.56,0.64,0.84,1.38,0.84,2.22c0,0.85-0.32,1.65-0.96,2.41
			c-0.64,0.76-1.76,1.4-3.36,1.93v0.03c1.94,0.26,3.35,0.72,4.25,1.41S503.19,573.3,503.19,574.48z"/>
	</g>
</g>
<g>
	<g>
		<path class="st3" d="M140.51,606.3c-0.79,0-1.85,0-3.17-0.01c-1.32-0.01-2.53-0.01-3.65-0.01c0,1.06,0.01,2.34,0.02,3.86
			c0.01,1.52,0.02,2.46,0.02,2.84h-2.45c0-0.4,0.01-1.28,0.03-2.65c0.02-1.37,0.03-2.72,0.03-4.04l-11.21,0.03l-1.1-1.59
			c2.88-2.35,5.52-4.55,7.92-6.61c2.4-2.06,4.08-3.49,5.04-4.3l1.74,0.72c-0.03,1.59-0.04,3.57-0.04,5.95
			c0,2.38,0.01,3.67,0.01,3.87c0.53,0,1.46-0.01,2.79-0.04s2.67-0.04,4.02-0.04V606.3z M131.35,596.54l-0.03,0l-8.88,7.76l0,0.03
			c0.06,0,0.55,0,1.47,0.01s1.8,0.01,2.63,0.01c0.93,0,2.53,0,4.8-0.01c0-1.15,0-2.44,0-3.87S131.35,597.73,131.35,596.54z"/>
		<path class="st3" d="M153.18,606.8l-0.35,1.83c-0.1,0.01-0.28,0.02-0.52,0.02c-0.24,0-0.55,0.01-0.93,0.01
			c-2.5,0-4.35-0.39-5.56-1.16c-1.2-0.77-1.81-2-1.81-3.68c0-1.25,0.01-2.57,0.04-3.96c0.03-1.4,0.04-2.64,0.04-3.74h-3.2v-1.9h3.29
			v-3.38h2.24v3.38h6.87v1.9h-6.9c0,0.34,0,0.95-0.01,1.83c0,0.88-0.01,1.45-0.01,1.71c0,0.52,0,1.14,0.01,1.88
			c0.01,0.73,0.01,1.37,0.01,1.91c0,1.19,0.42,2.05,1.25,2.59s2.19,0.81,4.06,0.81c0.38,0,0.68,0,0.9-0.01
			C152.85,606.81,153.03,606.81,153.18,606.8z"/>
		<path class="st3" d="M171.59,608.54h-2.44c0-0.26,0.01-1.08,0.02-2.45c0.01-1.37,0.02-2.26,0.02-2.66c0-0.49,0-1.27-0.01-2.33
			c-0.01-1.06-0.02-1.73-0.03-2c-0.04-1.02-0.33-1.81-0.89-2.36c-0.56-0.56-1.5-0.84-2.83-0.84c-1.15,0-2.39,0.23-3.71,0.68
			s-2.36,0.84-3.1,1.15l0.06,10.82h-2.44c0-0.23,0.01-1.47,0.02-3.72c0.01-2.26,0.02-4.65,0.02-7.19c0-1.55-0.01-3.04-0.02-4.49
			c-0.01-1.44-0.02-3.23-0.02-5.35h2.44l-0.06,7.93l0.06,0.04c0.87-0.38,2.03-0.79,3.48-1.24c1.45-0.45,2.74-0.67,3.86-0.67
			c1.73,0,3.09,0.4,4.09,1.21c1,0.81,1.49,1.97,1.49,3.48c0,1.14-0.01,2.06-0.02,2.75c-0.01,0.69-0.02,1.36-0.02,1.99
			c0,0.75,0.01,1.73,0.02,2.95C171.58,607.45,171.59,608.22,171.59,608.54z"/>
		<path class="st3" d="M265.58,601.4c0,1.16-0.24,2.2-0.73,3.13c-0.49,0.93-1.2,1.73-2.13,2.41c-0.99,0.72-2.02,1.23-3.08,1.54
			c-1.06,0.31-2.35,0.47-3.86,0.47c-1.41,0-2.67-0.17-3.78-0.5s-2.13-0.84-3.06-1.51c-0.94-0.69-1.66-1.51-2.15-2.46
			c-0.49-0.95-0.73-1.99-0.73-3.11c0-1.12,0.21-2.1,0.62-2.93c0.42-0.83,1.09-1.63,2.01-2.41c0.89-0.75,1.94-1.3,3.16-1.66
			c1.22-0.36,2.55-0.54,3.97-0.54c1.45,0,2.77,0.18,3.94,0.54c1.17,0.36,2.2,0.88,3.09,1.57c0.91,0.7,1.59,1.51,2.04,2.42
			C265.35,599.29,265.58,600.3,265.58,601.4z M263.09,601.57c0-0.94-0.19-1.78-0.57-2.5c-0.38-0.72-0.96-1.37-1.76-1.93
			c-0.65-0.46-1.38-0.81-2.19-1.04c-0.81-0.23-1.72-0.35-2.73-0.35c-1.02,0-1.92,0.12-2.71,0.35c-0.79,0.23-1.53,0.58-2.22,1.04
			c-0.76,0.5-1.33,1.12-1.71,1.87c-0.39,0.75-0.58,1.54-0.58,2.39c0,0.97,0.21,1.82,0.64,2.56s1.02,1.36,1.8,1.89
			c0.66,0.45,1.39,0.78,2.18,0.98c0.79,0.2,1.64,0.3,2.55,0.3c0.93,0,1.84-0.12,2.7-0.35c0.87-0.24,1.58-0.54,2.14-0.92
			c0.87-0.58,1.5-1.21,1.88-1.86S263.09,602.53,263.09,601.57z"/>
		<path class="st3" d="M288.28,601.4c0,1.16-0.24,2.2-0.73,3.13c-0.49,0.93-1.2,1.73-2.13,2.41c-0.99,0.72-2.02,1.23-3.08,1.54
			c-1.06,0.31-2.35,0.47-3.86,0.47c-1.41,0-2.67-0.17-3.78-0.5s-2.13-0.84-3.06-1.51c-0.94-0.69-1.66-1.51-2.15-2.46
			c-0.49-0.95-0.73-1.99-0.73-3.11c0-1.12,0.21-2.1,0.62-2.93c0.42-0.83,1.09-1.63,2.01-2.41c0.89-0.75,1.94-1.3,3.16-1.66
			c1.22-0.36,2.55-0.54,3.97-0.54c1.45,0,2.77,0.18,3.94,0.54c1.17,0.36,2.2,0.88,3.09,1.57c0.91,0.7,1.59,1.51,2.04,2.42
			C288.05,599.29,288.28,600.3,288.28,601.4z M285.78,601.57c0-0.94-0.19-1.78-0.57-2.5c-0.38-0.72-0.96-1.37-1.76-1.93
			c-0.65-0.46-1.38-0.81-2.19-1.04c-0.81-0.23-1.72-0.35-2.73-0.35c-1.02,0-1.92,0.12-2.71,0.35c-0.79,0.23-1.53,0.58-2.22,1.04
			c-0.76,0.5-1.33,1.12-1.71,1.87c-0.39,0.75-0.58,1.54-0.58,2.39c0,0.97,0.21,1.82,0.64,2.56s1.02,1.36,1.8,1.89
			c0.66,0.45,1.39,0.78,2.18,0.98c0.79,0.2,1.64,0.3,2.55,0.3c0.93,0,1.84-0.12,2.7-0.35c0.87-0.24,1.58-0.54,2.14-0.92
			c0.87-0.58,1.5-1.21,1.88-1.86S285.78,602.53,285.78,601.57z"/>
		<path class="st3" d="M305.24,596.45c-0.26,0-1.83,0-4.69,0c-2.86,0-4.83,0-5.88,0v5.22c1.27,0.06,2.48,0.17,3.62,0.34
			c1.14,0.17,2.07,0.39,2.81,0.65c1.22,0.43,2.14,1.02,2.75,1.77c0.62,0.75,0.93,1.61,0.93,2.61c0,0.98-0.33,1.87-1,2.67
			c-0.67,0.8-1.67,1.46-3.02,1.98c-0.93,0.36-2.07,0.62-3.41,0.79c-1.34,0.17-2.76,0.27-4.28,0.3c-0.25,0-0.67,0-1.27,0l-0.33-1.96
			c0.48,0,0.82,0,1.02,0c1.19-0.01,2.34-0.06,3.45-0.14c1.11-0.09,2.1-0.25,2.97-0.48c1.09-0.29,1.91-0.69,2.48-1.2
			s0.85-1.12,0.85-1.85c0-0.68-0.28-1.26-0.83-1.76c-0.55-0.49-1.39-0.89-2.5-1.2c-0.59-0.16-1.37-0.29-2.35-0.4
			c-0.98-0.1-2.01-0.17-3.07-0.18c-0.21,0-0.4,0-0.57,0s-0.33,0-0.48,0c0-0.21,0-0.81,0.01-1.81s0.01-1.95,0.01-2.87
			c0-0.88,0-1.78-0.01-2.71c-0.01-0.92-0.01-1.52-0.01-1.78c0.28,0,1.1,0,2.46,0.01c1.35,0,2.61,0.01,3.77,0.01
			c1.27,0,2.63,0,4.1-0.01c1.47,0,2.3-0.01,2.49-0.01V596.45z"/>
		<path class="st3" d="M326.93,601.4c0,1.16-0.24,2.2-0.73,3.13c-0.49,0.93-1.2,1.73-2.13,2.41c-0.99,0.72-2.02,1.23-3.08,1.54
			c-1.06,0.31-2.35,0.47-3.86,0.47c-1.41,0-2.67-0.17-3.78-0.5c-1.11-0.33-2.13-0.84-3.06-1.51c-0.94-0.69-1.66-1.51-2.15-2.46
			c-0.49-0.95-0.73-1.99-0.73-3.11c0-1.12,0.21-2.1,0.62-2.93c0.42-0.83,1.09-1.63,2.01-2.41c0.89-0.75,1.94-1.3,3.17-1.66
			c1.22-0.36,2.55-0.54,3.97-0.54c1.45,0,2.77,0.18,3.94,0.54c1.17,0.36,2.2,0.88,3.09,1.57c0.91,0.7,1.59,1.51,2.04,2.42
			C326.71,599.29,326.93,600.3,326.93,601.4z M324.44,601.57c0-0.94-0.19-1.78-0.57-2.5c-0.38-0.72-0.96-1.37-1.76-1.93
			c-0.65-0.46-1.38-0.81-2.19-1.04c-0.81-0.23-1.72-0.35-2.73-0.35c-1.02,0-1.92,0.12-2.71,0.35c-0.79,0.23-1.53,0.58-2.22,1.04
			c-0.75,0.5-1.33,1.12-1.71,1.87c-0.39,0.75-0.58,1.54-0.58,2.39c0,0.97,0.21,1.82,0.64,2.56s1.02,1.36,1.8,1.89
			c0.66,0.45,1.39,0.78,2.18,0.98c0.79,0.2,1.64,0.3,2.55,0.3c0.93,0,1.84-0.12,2.71-0.35c0.87-0.24,1.58-0.54,2.14-0.92
			c0.87-0.58,1.5-1.21,1.88-1.86C324.25,603.33,324.44,602.53,324.44,601.57z"/>
		<path class="st3" d="M343.9,596.45c-0.26,0-1.83,0-4.69,0c-2.86,0-4.83,0-5.88,0v5.22c1.27,0.06,2.48,0.17,3.62,0.34
			c1.14,0.17,2.08,0.39,2.81,0.65c1.22,0.43,2.14,1.02,2.75,1.77s0.93,1.61,0.93,2.61c0,0.98-0.33,1.87-1,2.67
			c-0.67,0.8-1.67,1.46-3.02,1.98c-0.93,0.36-2.07,0.62-3.41,0.79c-1.33,0.17-2.76,0.27-4.28,0.3c-0.25,0-0.67,0-1.27,0l-0.33-1.96
			c0.48,0,0.82,0,1.02,0c1.19-0.01,2.34-0.06,3.45-0.14c1.11-0.09,2.1-0.25,2.97-0.48c1.09-0.29,1.91-0.69,2.48-1.2
			s0.85-1.12,0.85-1.85c0-0.68-0.28-1.26-0.83-1.76c-0.55-0.49-1.38-0.89-2.5-1.2c-0.58-0.16-1.37-0.29-2.35-0.4
			c-0.98-0.1-2.01-0.17-3.07-0.18c-0.21,0-0.4,0-0.57,0s-0.33,0-0.48,0c0-0.21,0-0.81,0.01-1.81c0.01-1,0.01-1.95,0.01-2.87
			c0-0.88,0-1.78-0.01-2.71c-0.01-0.92-0.01-1.52-0.01-1.78c0.28,0,1.1,0,2.46,0.01c1.36,0,2.61,0.01,3.77,0.01
			c1.26,0,2.63,0,4.1-0.01c1.47,0,2.3-0.01,2.49-0.01V596.45z"/>
		<path class="st3" d="M365.59,601.4c0,1.16-0.24,2.2-0.73,3.13c-0.49,0.93-1.2,1.73-2.13,2.41c-0.99,0.72-2.02,1.23-3.08,1.54
			c-1.06,0.31-2.35,0.47-3.86,0.47c-1.41,0-2.67-0.17-3.78-0.5s-2.13-0.84-3.06-1.51c-0.94-0.69-1.66-1.51-2.15-2.46
			c-0.49-0.95-0.73-1.99-0.73-3.11c0-1.12,0.21-2.1,0.62-2.93c0.42-0.83,1.09-1.63,2.01-2.41c0.89-0.75,1.94-1.3,3.16-1.66
			c1.22-0.36,2.55-0.54,3.97-0.54c1.45,0,2.77,0.18,3.94,0.54c1.17,0.36,2.2,0.88,3.09,1.57c0.91,0.7,1.59,1.51,2.04,2.42
			C365.37,599.29,365.59,600.3,365.59,601.4z M363.1,601.57c0-0.94-0.19-1.78-0.57-2.5c-0.38-0.72-0.96-1.37-1.76-1.93
			c-0.65-0.46-1.38-0.81-2.2-1.04c-0.81-0.23-1.72-0.35-2.73-0.35c-1.02,0-1.92,0.12-2.71,0.35c-0.79,0.23-1.53,0.58-2.22,1.04
			c-0.76,0.5-1.33,1.12-1.71,1.87c-0.39,0.75-0.58,1.54-0.58,2.39c0,0.97,0.21,1.82,0.64,2.56s1.02,1.36,1.8,1.89
			c0.66,0.45,1.39,0.78,2.18,0.98c0.79,0.2,1.64,0.3,2.55,0.3c0.93,0,1.84-0.12,2.7-0.35c0.87-0.24,1.58-0.54,2.14-0.92
			c0.87-0.58,1.5-1.21,1.88-1.86S363.1,602.53,363.1,601.57z"/>
		<path class="st3" d="M415.58,608.54h-2.44c0-0.28,0.01-1,0.02-2.15c0.01-1.15,0.02-2.13,0.02-2.95c0-0.92-0.01-1.74-0.02-2.49
			c-0.01-0.74-0.02-1.29-0.02-1.65c0-1.06-0.31-1.89-0.93-2.5c-0.62-0.61-1.58-0.91-2.86-0.91c-0.91,0-1.91,0.16-3.01,0.47
			s-2.34,0.76-3.73,1.36c0,0.26,0,0.83-0.01,1.71s-0.01,1.7-0.01,2.46c0,1.29,0.01,2.67,0.04,4.14c0.02,1.46,0.04,2.3,0.04,2.51
			h-2.44c0-0.21,0.01-0.96,0.02-2.26c0.01-1.3,0.02-2.76,0.02-4.38c0-1.89-0.01-3.35-0.02-4.38c-0.01-1.03-0.02-2.14-0.02-3.31h2.38
			l-0.01,1.61h0.01c1.19-0.55,2.46-1.01,3.81-1.4c1.35-0.39,2.61-0.58,3.78-0.58c1.76,0,3.09,0.41,4.01,1.23s1.37,1.93,1.37,3.33
			c0,0.75-0.01,1.55-0.02,2.42c-0.01,0.87-0.02,1.66-0.02,2.38c0,0.71,0.01,1.72,0.02,3.03
			C415.58,607.54,415.58,608.31,415.58,608.54z"/>
		<path class="st3" d="M434.33,600.5c0,1.75-0.01,3.49-0.02,5.23c-0.01,1.74-0.02,2.69-0.02,2.84c-0.19,0.02-0.84,0.06-1.95,0.11
			s-2.15,0.08-3.14,0.08c-1.43,0-2.65-0.06-3.67-0.19c-1.02-0.13-1.91-0.32-2.64-0.59c-1.07-0.39-1.88-0.9-2.44-1.53
			c-0.56-0.63-0.83-1.33-0.83-2.11c0-0.91,0.34-1.72,1.02-2.44s1.73-1.27,3.16-1.64c1-0.26,2.23-0.49,3.7-0.67
			c1.46-0.18,2.94-0.32,4.43-0.4c-0.09-0.71-0.35-1.28-0.8-1.72c-0.45-0.44-1.07-0.79-1.87-1.04c-0.59-0.19-1.24-0.32-1.92-0.39
			c-0.69-0.07-1.48-0.11-2.38-0.11c-0.75,0-1.35,0.01-1.79,0.03c-0.44,0.02-0.86,0.04-1.26,0.07l0.28-1.91
			c0.24-0.01,0.62-0.03,1.15-0.07c0.53-0.04,1.24-0.06,2.12-0.06c1.55,0,2.88,0.12,3.99,0.37c1.11,0.25,2.02,0.61,2.73,1.09
			c0.69,0.46,1.22,1.09,1.6,1.89C434.14,598.14,434.33,599.19,434.33,600.5z M431.95,603.72c0-0.46,0-0.94-0.01-1.44
			c-0.01-0.5-0.01-0.9-0.01-1.22c-0.83,0.02-1.94,0.09-3.34,0.21c-1.39,0.12-2.58,0.3-3.55,0.52c-1.14,0.26-1.91,0.62-2.31,1.05
			c-0.4,0.44-0.6,0.89-0.6,1.35c0,0.57,0.23,1.05,0.68,1.44c0.45,0.4,1.15,0.71,2.09,0.95c0.54,0.13,1.19,0.22,1.97,0.28
			c0.77,0.05,1.71,0.08,2.8,0.08c0.25,0,0.55,0,0.9-0.01c0.36-0.01,0.81-0.03,1.36-0.07C431.94,605.67,431.95,604.62,431.95,603.72z
			"/>
		<path class="st3" d="M466.61,608.54h-2.44c0-0.1,0.01-0.58,0.02-1.43c0.01-0.85,0.02-2.08,0.02-3.68c0-1.25,0-2.21-0.01-2.9
			c-0.01-0.68-0.02-1.16-0.03-1.44c-0.04-1.05-0.32-1.84-0.85-2.39c-0.53-0.54-1.49-0.81-2.87-0.81c-0.97,0-1.96,0.15-2.95,0.44
			c-1,0.29-2.04,0.67-3.12,1.13c0.01,0.06,0.02,0.21,0.04,0.47c0.01,0.25,0.02,0.45,0.02,0.59c0,0.71-0.01,1.36-0.02,1.96
			c-0.01,0.6-0.02,1.53-0.02,2.78c0,0.95,0.01,2.04,0.02,3.25c0.01,1.21,0.02,1.89,0.02,2.02H452c0-0.16,0.01-0.78,0.02-1.86
			c0.01-1.08,0.02-2.16,0.02-3.26c0-0.87,0-1.74-0.01-2.61c-0.01-0.87-0.02-1.45-0.03-1.72c-0.02-0.64-0.12-1.18-0.3-1.61
			c-0.18-0.43-0.46-0.78-0.84-1.05c-0.27-0.19-0.62-0.33-1.05-0.41s-0.93-0.13-1.53-0.13c-0.98,0-2.02,0.19-3.11,0.56
			c-1.09,0.37-2.07,0.75-2.94,1.13c0,0.26,0,0.96-0.01,2.08c0,1.12-0.01,2.03-0.01,2.71c0,1.15,0.01,2.42,0.02,3.79
			c0.01,1.38,0.02,2.17,0.02,2.38h-2.44c0-0.16,0.01-0.75,0.02-1.77c0.01-1.02,0.02-2.53,0.02-4.53c0-1.05-0.01-2.31-0.02-3.79
			c-0.01-1.48-0.02-2.89-0.02-4.24h2.44l-0.03,1.37l0.04,0.03c0.91-0.4,1.97-0.79,3.19-1.18c1.22-0.39,2.35-0.59,3.39-0.59
			c1.14,0,2.11,0.16,2.91,0.48c0.8,0.32,1.43,0.82,1.89,1.49h0.04c1.28-0.58,2.54-1.06,3.77-1.42c1.23-0.36,2.42-0.54,3.57-0.54
			c1.73,0,3.09,0.4,4.08,1.21c1,0.81,1.49,1.97,1.49,3.48c0,1.14-0.01,2.06-0.02,2.75c-0.01,0.69-0.02,1.36-0.02,1.99
			c0,0.88,0.01,1.95,0.02,3.22C466.61,607.76,466.61,608.44,466.61,608.54z"/>
		<path class="st3" d="M486.99,601.09h-14.03c0.04,0.96,0.34,1.84,0.92,2.63s1.43,1.43,2.55,1.93c0.73,0.32,1.59,0.57,2.59,0.75
			c1,0.18,2.1,0.27,3.3,0.27c1,0,1.72-0.01,2.16-0.02c0.44-0.01,0.77-0.04,1-0.08l-0.35,2c-0.15,0.02-0.43,0.04-0.85,0.05
			c-0.42,0.01-1.11,0.02-2.08,0.02c-1.9,0-3.57-0.17-5.02-0.52s-2.68-0.89-3.7-1.63c-0.95-0.69-1.67-1.5-2.17-2.44
			s-0.74-1.91-0.74-2.91c0-1.07,0.21-2.04,0.62-2.91c0.41-0.87,1.05-1.68,1.93-2.42c0.72-0.6,1.6-1.08,2.66-1.44
			c1.06-0.35,2.21-0.53,3.47-0.53c1.2,0,2.25,0.17,3.16,0.5c0.91,0.33,1.65,0.74,2.24,1.21c0.74,0.59,1.31,1.39,1.73,2.37
			S486.99,599.97,486.99,601.09z M484.49,599.35c-0.21-1.06-0.77-1.93-1.7-2.63c-0.93-0.69-2.15-1.04-3.67-1.04
			c-1.49,0-2.74,0.31-3.75,0.92c-1.01,0.61-1.72,1.53-2.14,2.75H484.49z"/>
		<path class="st3" d="M510.2,606.3c-0.79,0-1.85,0-3.17-0.01c-1.32-0.01-2.53-0.01-3.65-0.01c0,1.06,0.01,2.34,0.02,3.86
			c0.01,1.52,0.02,2.46,0.02,2.84h-2.45c0-0.4,0.01-1.28,0.03-2.65c0.02-1.37,0.03-2.72,0.03-4.04l-11.21,0.03l-1.1-1.59
			c2.88-2.35,5.52-4.55,7.92-6.61c2.4-2.06,4.08-3.49,5.04-4.3l1.74,0.72c-0.03,1.59-0.04,3.57-0.04,5.95s0.01,3.67,0.01,3.87
			c0.53,0,1.46-0.01,2.79-0.04s2.67-0.04,4.02-0.04V606.3z M501.04,596.54l-0.03,0l-8.88,7.76l0,0.03c0.06,0,0.55,0,1.47,0.01
			s1.8,0.01,2.63,0.01c0.93,0,2.53,0,4.8-0.01c0-1.15,0-2.44,0-3.87S501.04,597.73,501.04,596.54z"/>
	</g>
</g>
<g>
	<g>
	</g>
</g>
</svg>
